<svg xmlns="http://www.w3.org/2000/svg" xmlns:xlink="http://www.w3.org/1999/xlink" width="2000" zoomAndPan="magnify" viewBox="0 0 1500 1499.999933" height="2000" preserveAspectRatio="xMidYMid meet" version="1.0"><defs><g/><clipPath id="168336bfac"><rect x="0" width="948" y="0" height="101"/></clipPath></defs><rect x="-150" width="1800" fill="#ffffff" y="-149.999993" height="1799.99992" fill-opacity="1"/><rect x="-150" width="1800" fill="#ffffff" y="-149.999993" height="1799.99992" fill-opacity="1"/><path fill="#592b0b" d="M 863.285156 963.257812 L 860.375 973.367188 L 849.917969 973.367188 L 865.34375 924.191406 L 879.394531 924.019531 L 896.1875 973.023438 L 883.164062 973.195312 L 879.566406 963.257812 Z M 866.199219 954.003906 L 876.824219 954.003906 L 871.511719 937.039062 Z M 809.820312 924.53125 L 848.035156 924.359375 L 848.035156 933.957031 L 835.011719 934.128906 L 835.355469 973.707031 L 823.015625 973.707031 L 822.671875 934.128906 L 809.820312 934.128906 Z M 769.890625 924.703125 L 808.105469 924.53125 L 808.105469 934.128906 L 795.082031 934.300781 L 795.425781 973.878906 L 782.914062 973.878906 L 782.570312 934.300781 L 769.71875 934.300781 Z M 765.09375 960.34375 C 765.09375 964.796875 763.035156 968.394531 758.582031 970.964844 C 754.640625 973.367188 749.839844 974.734375 744.355469 974.734375 C 738.703125 974.734375 734.074219 973.535156 730.304688 971.136719 C 726.019531 968.394531 723.964844 964.457031 723.964844 959.488281 L 723.792969 925.046875 L 736.644531 925.046875 L 736.816406 957.429688 C 736.816406 960 737.675781 962.058594 739.558594 963.597656 C 741.445312 965.140625 743.5 965.828125 746.070312 965.828125 C 748.296875 965.828125 750.355469 965.140625 751.898438 963.597656 C 753.609375 962.226562 754.46875 960.171875 754.46875 957.773438 L 754.296875 924.875 L 764.921875 924.875 Z M 696.03125 974.394531 C 689.175781 974.394531 683.691406 972.335938 679.582031 967.882812 C 675.125 963.257812 672.898438 956.746094 672.898438 948.347656 L 672.898438 946.808594 C 672.898438 941.667969 674.269531 937.039062 677.007812 932.757812 C 680.609375 927.101562 685.921875 923.847656 692.777344 922.820312 L 695.6875 922.820312 C 701.171875 922.820312 705.800781 924.191406 709.570312 926.929688 C 714.367188 930.359375 716.9375 935.5 716.9375 942.007812 L 704.429688 943.207031 L 704.429688 942.523438 C 704.429688 939.4375 703.570312 937.039062 701.6875 935.15625 C 699.972656 933.441406 697.917969 932.414062 695.515625 932.585938 C 694.144531 932.585938 692.777344 932.929688 691.40625 933.613281 C 690.035156 934.300781 689.175781 935.15625 688.492188 936.355469 C 687.804688 937.554688 687.121094 939.269531 686.605469 941.667969 C 686.09375 944.066406 685.921875 946.636719 685.921875 949.035156 C 685.921875 953.488281 686.777344 957.085938 688.148438 959.828125 C 690.035156 963.085938 692.605469 964.796875 696.203125 964.796875 C 698.429688 964.796875 700.316406 964.113281 701.859375 962.742188 C 703.914062 961.027344 704.941406 958.457031 704.941406 955.03125 L 716.765625 956.230469 C 716.082031 962.914062 713.339844 967.710938 708.710938 970.796875 C 705.457031 973.195312 701.171875 974.394531 696.03125 974.394531 Z M 649.417969 965.140625 L 669.984375 964.96875 L 669.984375 974.394531 L 637.765625 974.566406 L 637.421875 925.390625 L 649.078125 925.390625 Z M 603.320312 964.96875 L 600.410156 975.078125 L 589.953125 975.078125 L 605.378906 925.902344 L 619.429688 925.730469 L 636.222656 974.734375 L 623.199219 974.90625 L 619.601562 964.96875 Z M 606.0625 955.71875 L 616.6875 955.71875 L 611.375 938.753906 Z M 565.449219 975.25 C 558.59375 975.25 553.28125 973.195312 548.996094 968.738281 C 544.542969 964.113281 542.316406 957.601562 542.316406 949.207031 L 542.316406 947.664062 C 542.316406 942.523438 543.683594 937.898438 546.425781 933.613281 C 550.027344 927.960938 555.339844 924.703125 562.191406 923.675781 L 565.105469 923.675781 C 570.417969 923.675781 575.21875 925.046875 578.988281 927.789062 C 583.785156 931.214844 586.183594 936.355469 586.355469 942.867188 L 574.015625 944.066406 L 574.015625 943.378906 C 574.015625 940.296875 573.160156 937.898438 571.277344 936.011719 C 569.5625 934.300781 567.503906 933.269531 565.105469 933.441406 C 563.734375 933.441406 562.363281 933.785156 560.992188 934.46875 C 559.621094 935.15625 558.765625 936.011719 557.910156 937.210938 C 557.222656 938.410156 556.539062 940.125 556.023438 942.523438 C 555.511719 944.921875 555.339844 947.492188 555.339844 949.890625 C 555.339844 954.347656 556.195312 957.945312 557.566406 960.6875 C 559.453125 963.941406 562.023438 965.65625 565.621094 965.65625 C 567.847656 965.65625 569.734375 964.96875 571.277344 963.597656 C 573.332031 961.886719 574.359375 959.316406 574.359375 955.886719 L 586.183594 957.085938 C 585.5 963.769531 582.757812 968.566406 578.128906 971.652344 C 575.046875 974.050781 570.589844 975.25 565.449219 975.25 Z M 565.449219 975.25 " fill-opacity="1" fill-rule="nonzero"/><path fill="#592b0b" d="M 946.742188 814.015625 L 949.828125 823.609375 L 941.257812 829.265625 L 927.378906 781.117188 L 938.6875 773.578125 L 978.617188 804.25 L 968.164062 811.273438 L 959.9375 805.105469 Z M 944 805.105469 L 952.570312 799.28125 L 939.203125 788.3125 Z M 899.445312 829.605469 L 895.847656 799.621094 L 911.785156 791.910156 L 932.691406 834.746094 L 922.410156 839.714844 L 905.441406 804.761719 L 911.097656 845.199219 L 903.902344 848.625 L 876.308594 819.328125 L 893.105469 853.9375 L 884.363281 858.050781 L 863.457031 815.214844 L 879.910156 807.160156 Z M 1070.984375 633.761719 L 1059.503906 654.320312 L 1067.726562 658.949219 L 1076.980469 642.5 L 1085.035156 646.953125 L 1075.78125 663.402344 L 1085.550781 668.886719 L 1097.203125 647.8125 L 1105.773438 652.609375 L 1088.121094 683.792969 L 1046.480469 660.492188 L 1063.785156 629.648438 Z M 1105.257812 531.808594 L 1099.773438 554.769531 L 1108.855469 557 L 1113.140625 538.664062 L 1122.050781 540.71875 L 1117.769531 559.054688 L 1128.5625 561.625 L 1134.046875 538.148438 L 1143.472656 540.378906 L 1135.246094 575.332031 L 1088.808594 564.367188 L 1097.03125 529.925781 Z M 1103.886719 608.574219 L 1080.921875 589.039062 L 1087.4375 572.589844 L 1131.820312 589.894531 L 1127.535156 600.519531 L 1091.207031 586.46875 L 1122.910156 612.34375 L 1119.996094 619.710938 L 1079.894531 616.96875 L 1115.710938 630.847656 L 1112.285156 639.757812 L 1067.898438 622.453125 L 1074.582031 605.488281 Z M 1103.203125 476.125 L 1103.542969 438.941406 L 1112.796875 438.941406 L 1112.625 451.621094 L 1151.011719 451.964844 L 1150.84375 463.957031 L 1112.457031 463.617188 L 1112.285156 476.125 Z M 1129.421875 495.3125 L 1102.171875 492.230469 L 1103.203125 483.148438 L 1150.671875 488.460938 L 1149.640625 498.226562 L 1116.054688 513.992188 L 1147.585938 517.589844 L 1146.558594 526.671875 L 1099.089844 521.359375 L 1100.460938 509.535156 Z M 995.410156 763.640625 L 977.589844 742.90625 L 984.445312 736.910156 L 1015.632812 773.0625 L 1008.265625 779.402344 L 972.960938 768.09375 L 993.699219 792.082031 L 986.84375 798.078125 L 955.652344 761.925781 L 964.738281 754.214844 Z M 1081.265625 695.101562 L 1077.839844 699.726562 L 1072.355469 698.015625 C 1073.210938 701.269531 1073.382812 704.011719 1072.699219 706.410156 C 1072.183594 708.464844 1071.15625 710.523438 1069.613281 712.75 L 1069.097656 713.605469 C 1065.5 718.40625 1060.703125 720.976562 1054.703125 720.976562 C 1049.050781 720.976562 1043.222656 718.917969 1037.566406 714.976562 L 1036.710938 714.292969 C 1030.542969 709.835938 1027.113281 704.355469 1026.257812 697.84375 C 1025.402344 692.019531 1026.773438 686.878906 1030.027344 682.421875 C 1032.941406 678.480469 1036.367188 675.910156 1040.308594 674.367188 C 1045.109375 672.65625 1050.078125 673.167969 1055.046875 675.910156 L 1049.222656 685.847656 C 1047.335938 684.476562 1045.28125 683.964844 1042.878906 684.308594 C 1040.480469 684.648438 1038.597656 685.679688 1037.226562 687.5625 C 1034.996094 690.476562 1034.996094 693.730469 1037.054688 697.15625 C 1038.425781 699.726562 1040.996094 702.296875 1044.421875 704.867188 C 1047.679688 707.265625 1050.761719 708.808594 1053.503906 709.324219 C 1057.789062 710.179688 1061.046875 709.152344 1063.445312 705.894531 C 1064.816406 704.011719 1065.328125 701.957031 1064.988281 699.558594 C 1064.644531 697.328125 1063.445312 695.273438 1061.386719 693.730469 L 1055.734375 701.441406 L 1048.019531 695.957031 L 1060.1875 679.339844 Z M 1024.714844 749.933594 L 1030.027344 758.671875 L 1023.171875 766.210938 L 998.324219 722.6875 L 1007.578125 712.578125 L 1053.675781 732.96875 L 1045.109375 742.222656 L 1035.511719 738.28125 Z M 1020.089844 741.707031 L 1027.113281 734.167969 L 1011.519531 726.800781 Z M 827.640625 836.289062 L 804.679688 841.601562 L 807.078125 851.710938 L 825.414062 847.425781 L 827.46875 856.507812 L 809.132812 860.792969 L 813.417969 879.46875 L 801.765625 882.210938 L 790.96875 835.777344 L 825.414062 827.722656 Z M 789.769531 859.421875 L 789.941406 860.621094 C 790.96875 868.675781 789.597656 875.183594 786.34375 879.8125 C 783.085938 884.265625 778.460938 886.664062 771.949219 887.523438 C 766.121094 888.207031 761.324219 887.523438 757.722656 885.464844 C 752.070312 882.210938 748.640625 875.355469 747.441406 865.074219 C 746.414062 857.023438 748.128906 850.511719 752.238281 845.371094 C 755.667969 841.085938 760.125 838.6875 765.433594 838.003906 C 772.289062 837.148438 777.945312 839.203125 782.570312 843.828125 C 786.683594 848.113281 789.085938 853.253906 789.769531 859.421875 Z M 759.09375 858.90625 L 759.4375 863.191406 C 759.609375 865.246094 759.78125 866.445312 759.953125 866.960938 C 760.121094 867.472656 760.125 867.816406 760.292969 868.160156 C 760.636719 871.757812 762.007812 874.5 764.234375 876.726562 C 766.292969 878.613281 768.347656 879.46875 770.578125 879.125 C 772.632812 878.953125 774.347656 877.753906 775.890625 875.699219 C 777.429688 873.472656 778.289062 870.558594 778.117188 867.304688 L 777.429688 861.132812 L 776.917969 857.363281 C 776.574219 854.109375 775.375 851.710938 773.320312 849.996094 C 771.261719 848.285156 769.035156 847.425781 766.804688 847.769531 C 764.75 847.941406 763.035156 849.140625 761.492188 850.855469 C 759.953125 852.910156 759.265625 855.480469 759.09375 858.90625 Z M 497.246094 770.664062 L 528.433594 790.882812 L 523.464844 798.765625 L 512.839844 791.910156 L 491.933594 824.125 L 481.820312 817.613281 L 502.726562 785.402344 L 492.273438 778.71875 Z M 550.199219 802.535156 L 584.300781 817.441406 L 580.53125 826.007812 L 569.046875 820.867188 L 553.625 855.996094 L 542.484375 851.195312 L 557.910156 816.070312 L 546.425781 811.101562 Z M 522.09375 841.257812 L 511.640625 835.605469 L 534.261719 793.625 L 544.714844 799.28125 Z M 704.601562 850.167969 L 681.121094 848.113281 L 680.265625 857.535156 L 699.117188 859.078125 L 698.257812 868.332031 L 679.410156 866.789062 L 678.550781 877.925781 L 702.542969 879.984375 L 701.6875 889.75 L 665.871094 886.664062 L 669.984375 839.203125 L 705.285156 842.285156 Z M 630.570312 831.664062 L 667.070312 838.515625 L 665.355469 847.597656 L 653.019531 845.199219 L 645.820312 882.894531 L 633.996094 880.667969 L 641.195312 842.972656 L 629.027344 840.746094 Z M 616.175781 863.875 C 614.972656 867.988281 611.890625 870.558594 607.089844 871.929688 C 602.808594 873.128906 598.007812 872.785156 592.695312 871.242188 C 587.554688 869.703125 583.441406 867.132812 580.699219 863.703125 C 577.617188 859.933594 576.757812 855.652344 578.300781 851.027344 L 588.242188 818.984375 L 600.066406 822.582031 L 590.8125 852.566406 C 590.125 854.964844 590.296875 857.195312 591.667969 859.078125 C 592.867188 860.964844 594.753906 862.335938 596.980469 863.019531 C 599.039062 863.703125 601.09375 863.535156 603.148438 862.675781 C 605.207031 861.820312 606.578125 860.277344 607.261719 857.878906 L 616.6875 827.378906 L 626.457031 830.464844 Z M 474.625 763.296875 C 473.253906 762.269531 471.882812 761.582031 470.511719 761.242188 C 469.140625 761.070312 467.941406 761.414062 467.082031 762.613281 C 465.714844 764.324219 466.226562 766.894531 468.796875 770.320312 C 470.855469 772.722656 472.394531 774.605469 473.425781 775.632812 C 476.167969 779.0625 477.707031 782.316406 478.050781 785.570312 C 478.394531 788.828125 477.367188 792.082031 474.96875 794.996094 L 473.425781 796.710938 C 469.824219 799.964844 465.714844 801.164062 460.914062 800.308594 C 456.972656 799.621094 453.03125 797.738281 449.261719 794.652344 C 446.003906 791.910156 443.605469 789 442.0625 785.914062 C 439.835938 781.117188 439.835938 776.320312 441.894531 771.179688 L 451.660156 776.320312 C 450.632812 778.71875 450.632812 781.289062 452.003906 783.6875 C 452.859375 785.230469 454.058594 786.601562 455.601562 787.800781 C 457.144531 789 458.6875 789.855469 460.570312 790.199219 C 462.285156 790.539062 463.65625 790.199219 464.511719 789.171875 C 465.199219 788.484375 465.371094 787.457031 465.371094 786.429688 C 465.371094 784.371094 464 781.800781 461.257812 778.375 C 457.660156 773.921875 455.601562 771.007812 454.917969 769.464844 C 453.203125 765.695312 453.375 762.097656 455.429688 758.671875 L 456.800781 756.613281 C 459.199219 753.53125 462.285156 751.816406 466.054688 751.300781 C 470.855469 750.617188 475.652344 752.160156 480.449219 756.101562 C 483.707031 758.84375 486.105469 761.582031 487.648438 764.667969 C 489.53125 768.78125 489.703125 772.550781 487.820312 776.148438 L 478.566406 772.890625 C 479.078125 771.351562 479.25 769.808594 478.738281 768.265625 C 478.394531 766.722656 477.539062 765.351562 476.335938 763.980469 Z M 433.839844 752.84375 L 453.375 733.65625 L 459.714844 740.164062 L 425.613281 773.578125 L 418.757812 766.550781 L 427.839844 730.570312 L 405.21875 752.671875 L 398.878906 746.164062 L 432.980469 712.75 L 441.378906 721.316406 Z M 364.605469 663.746094 L 388.597656 650.550781 L 393.054688 658.605469 L 351.238281 681.566406 L 346.613281 673 L 365.121094 640.785156 L 337.1875 656.035156 L 332.902344 647.980469 L 374.714844 625.191406 L 380.371094 635.644531 Z M 325.535156 605.488281 L 315.421875 606.515625 L 311.652344 596.921875 L 361.691406 593.664062 L 366.832031 606.34375 L 328.449219 638.902344 L 323.820312 627.25 L 331.53125 620.394531 Z M 334.960938 604.804688 L 338.730469 614.398438 L 352.265625 603.605469 Z M 309.082031 587.15625 L 305.65625 575.675781 L 351.410156 562.136719 L 354.839844 573.617188 Z M 325.707031 559.226562 C 319.363281 560.425781 313.539062 559.738281 308.398438 556.828125 C 302.570312 553.742188 299.144531 548.773438 297.773438 541.917969 L 294.003906 522.902344 L 340.785156 513.648438 L 344.382812 532.152344 C 345.753906 539.351562 344.554688 545.347656 340.613281 550.488281 C 337.015625 555.113281 332.046875 558.027344 325.707031 559.226562 Z M 306.511719 539.007812 C 307.199219 542.605469 309.253906 545.003906 312.679688 546.546875 C 315.765625 547.917969 319.195312 548.257812 323.136719 547.402344 C 327.078125 546.546875 330.160156 545.003906 332.558594 542.433594 C 335.300781 539.691406 336.332031 536.265625 335.472656 532.667969 L 334.273438 527.011719 L 305.140625 532.839844 Z M 311.996094 500.113281 L 339.414062 498.054688 L 340.101562 507.136719 L 292.460938 510.734375 L 291.773438 500.96875 L 321.933594 479.207031 L 290.230469 481.605469 L 289.546875 472.523438 L 337.1875 468.925781 L 338.042969 480.75 Z M 289.71875 458.132812 L 289.890625 446.308594 L 337.53125 446.996094 L 337.359375 458.816406 Z M 389.796875 735.023438 L 382.257812 725.773438 L 419.273438 695.617188 L 426.8125 704.867188 Z M 389.796875 735.023438 " fill-opacity="1" fill-rule="nonzero"/><path fill="#592b0b" d="M 722.078125 549.628906 C 720.707031 549.628906 719.507812 550.828125 719.507812 552.199219 C 719.507812 553.570312 720.707031 554.769531 722.078125 554.769531 C 723.449219 554.769531 724.648438 553.570312 724.648438 552.199219 C 724.648438 550.660156 723.449219 549.628906 722.078125 549.628906 M 778.460938 525.640625 C 777.429688 526.671875 777.429688 528.210938 778.460938 529.242188 C 779.488281 530.269531 781.03125 530.269531 782.058594 529.242188 C 783.085938 528.210938 783.085938 526.671875 782.058594 525.640625 C 781.203125 524.785156 779.488281 524.785156 778.460938 525.640625 Z M 721.050781 389.25 C 722.421875 389.25 723.621094 388.050781 723.621094 386.683594 C 723.621094 385.3125 722.421875 384.113281 721.050781 384.113281 C 719.679688 384.113281 718.480469 385.3125 718.480469 386.683594 C 718.480469 388.222656 719.507812 389.25 721.050781 389.25 Z M 777.773438 408.785156 C 776.746094 409.8125 776.746094 411.355469 777.773438 412.382812 C 778.800781 413.410156 780.34375 413.410156 781.371094 412.382812 C 782.402344 411.355469 782.402344 409.8125 781.371094 408.785156 C 780.34375 407.757812 778.800781 407.757812 777.773438 408.785156 Z M 664.5 413.238281 C 665.527344 412.210938 665.527344 410.667969 664.5 409.640625 C 663.472656 408.613281 661.929688 408.613281 660.902344 409.640625 C 659.871094 410.667969 659.871094 412.210938 660.902344 413.238281 C 661.929688 414.097656 663.472656 414.097656 664.5 413.238281 Z M 906.8125 468.070312 C 902.015625 466.355469 887.792969 460.015625 877.167969 444.765625 C 867.054688 430.203125 855.230469 426.777344 850.605469 425.917969 C 854.71875 416.667969 857.632812 412.898438 859.003906 411.355469 C 859.34375 411.011719 859.171875 410.5 858.660156 410.5 C 856.773438 410.328125 852.492188 409.8125 844.09375 407.070312 C 846.835938 402.960938 851.804688 392.679688 848.550781 375.714844 C 844.949219 357.554688 850.433594 343.160156 852.492188 338.363281 C 852.832031 337.503906 852.492188 336.992188 851.632812 337.503906 C 847.007812 339.734375 832.613281 345.214844 814.273438 341.960938 C 796.796875 338.875 785.828125 344.53125 782.230469 347.273438 C 778.800781 338.191406 778.289062 333.566406 778.117188 331.507812 C 778.117188 330.996094 777.601562 330.824219 777.261719 331.167969 C 775.71875 332.535156 772.289062 335.277344 763.722656 339.390625 C 762.863281 334.9375 759.4375 323.457031 744.527344 313.515625 C 729.105469 303.238281 722.765625 289.1875 720.878906 284.21875 C 720.535156 283.359375 720.023438 283.359375 719.679688 284.21875 C 717.964844 289.015625 711.625 303.238281 696.375 313.859375 C 681.808594 323.96875 678.378906 335.449219 677.695312 339.90625 C 669.125 335.964844 665.527344 333.222656 663.984375 331.851562 C 663.472656 331.507812 663.128906 331.679688 663.128906 332.195312 C 662.957031 334.25 662.441406 338.707031 659.359375 347.445312 C 655.589844 344.875 645.136719 339.21875 627.65625 342.644531 C 609.492188 346.246094 595.09375 340.933594 590.296875 338.707031 C 589.441406 338.363281 589.097656 338.707031 589.441406 339.5625 C 591.667969 344.1875 597.152344 358.582031 593.894531 376.914062 C 590.8125 394.050781 596.296875 404.5 599.039062 408.441406 C 590.125 411.699219 585.671875 412.382812 583.785156 412.382812 C 583.269531 412.382812 583.101562 412.898438 583.441406 413.238281 C 584.8125 414.78125 587.554688 418.210938 591.667969 426.605469 C 587.210938 427.460938 575.730469 430.886719 565.792969 445.625 C 555.507812 461.046875 541.457031 467.386719 536.660156 469.269531 C 535.800781 469.613281 535.800781 470.125 536.660156 470.46875 C 541.457031 472.183594 555.679688 478.523438 566.304688 493.773438 C 576.246094 508.164062 587.554688 511.59375 592.183594 512.449219 C 588.070312 521.1875 585.328125 524.957031 583.957031 526.5 C 583.613281 527.011719 583.785156 527.355469 584.300781 527.355469 C 586.355469 527.527344 590.8125 528.039062 599.550781 531.125 C 596.980469 534.894531 591.324219 545.347656 594.753906 562.824219 C 598.351562 580.988281 593.039062 595.378906 590.8125 600.175781 C 590.46875 601.035156 590.8125 601.375 591.667969 601.035156 C 596.296875 598.804688 610.691406 593.324219 629.027344 596.578125 C 646.335938 599.664062 656.789062 594.179688 660.558594 591.4375 C 663.984375 600.691406 664.671875 605.316406 664.84375 607.375 C 664.84375 607.886719 665.355469 608.058594 665.699219 607.714844 C 667.242188 606.34375 670.839844 603.433594 679.75 599.320312 C 680.609375 603.945312 684.035156 615.253906 698.773438 625.191406 C 714.195312 635.472656 720.535156 649.523438 722.421875 654.320312 C 722.765625 655.179688 723.277344 655.351562 723.621094 654.320312 C 725.335938 649.523438 731.675781 635.300781 746.925781 624.679688 C 761.492188 614.570312 764.921875 603.261719 765.605469 598.636719 C 774.519531 602.746094 778.117188 605.488281 779.660156 606.859375 C 780.171875 607.203125 780.515625 607.03125 780.515625 606.515625 C 780.6875 604.460938 781.203125 600.003906 784.285156 591.265625 C 788.398438 594.007812 798.679688 598.976562 815.644531 595.722656 C 833.8125 592.125 848.207031 597.433594 853.003906 599.664062 C 853.859375 600.003906 854.203125 599.664062 853.859375 598.804688 C 851.632812 594.179688 846.148438 579.785156 849.40625 561.453125 C 852.492188 543.976562 846.835938 533.351562 844.09375 529.410156 C 853.347656 525.984375 857.972656 525.300781 860.03125 525.128906 C 860.542969 525.128906 860.714844 524.613281 860.375 524.269531 C 859.003906 522.902344 856.433594 519.472656 852.492188 511.421875 C 857.460938 510.390625 868.085938 506.621094 877.679688 492.402344 C 888.136719 476.980469 902.015625 470.640625 906.984375 468.753906 C 907.671875 468.925781 907.671875 468.414062 906.8125 468.070312 Z M 853.859375 412.898438 C 850.949219 417.179688 847.863281 422.835938 844.4375 431.402344 C 839.808594 442.710938 831.753906 451.277344 827.640625 455.390625 C 826.269531 454.363281 824.898438 453.335938 823.359375 452.308594 C 814.273438 445.625 805.535156 442.539062 798.507812 441.167969 C 802.621094 437.742188 815.476562 431.230469 822.5 427.632812 C 824.898438 426.261719 824.730469 425.234375 821.988281 426.089844 C 814.105469 428.660156 800.738281 432.945312 795.425781 433.628906 C 799.367188 427.632812 803.136719 419.410156 804.679688 408.441406 C 805.019531 406.386719 805.191406 404.5 805.535156 402.789062 C 811.363281 402.445312 823.015625 402.101562 834.152344 406.730469 C 842.550781 410.15625 848.71875 412.039062 853.859375 412.898438 Z M 796.96875 543.632812 C 796.96875 543.632812 792.339844 544.660156 790.457031 543.976562 C 790.457031 543.976562 793.539062 547.917969 793.710938 551.171875 C 791.3125 550.828125 788.570312 550.488281 785.144531 549.972656 L 783.773438 549.800781 C 765.09375 547.230469 755.152344 536.4375 750.867188 531.980469 C 765.777344 524.957031 777.773438 512.792969 784.628906 497.714844 C 789.253906 501.824219 799.878906 511.078125 802.792969 529.925781 L 802.964844 530.953125 C 803.480469 534.378906 803.992188 537.292969 804.335938 539.691406 C 802.621094 539.519531 799.195312 538.835938 797.308594 537.292969 C 797.136719 537.292969 797.824219 539.691406 796.96875 543.632812 Z M 736.304688 569.675781 L 735.617188 570.535156 C 733.5625 573.277344 731.847656 575.675781 730.476562 577.558594 C 729.449219 576.1875 727.390625 573.277344 727.21875 570.878906 C 727.21875 570.878906 726.019531 572.933594 722.59375 575.332031 C 722.59375 575.332031 718.652344 572.761719 717.796875 571.046875 C 717.796875 571.046875 717.109375 576.015625 715.054688 578.417969 C 713.511719 576.53125 711.796875 574.304688 709.742188 571.5625 L 708.882812 570.535156 C 697.402344 555.285156 698.085938 540.71875 698.257812 534.550781 C 705.628906 537.292969 713.855469 538.664062 722.25 538.664062 C 730.820312 538.664062 739.042969 536.949219 746.585938 534.039062 C 754.125 531.125 746.414062 534.039062 746.414062 534.210938 C 746.585938 540.035156 747.613281 554.257812 736.304688 569.675781 Z M 722.078125 533.523438 C 704.429688 533.695312 688.320312 526.5 676.667969 515.019531 C 665.015625 503.539062 657.816406 487.605469 657.644531 469.785156 C 657.472656 452.136719 664.5 436.027344 676.152344 424.378906 C 687.632812 412.726562 703.570312 405.53125 721.394531 405.359375 C 739.042969 405.1875 755.152344 412.210938 766.804688 423.863281 C 778.460938 435.34375 785.65625 451.277344 785.828125 468.925781 C 786 486.574219 778.972656 502.683594 767.320312 514.332031 C 755.839844 526.15625 739.902344 533.351562 722.078125 533.523438 Z M 647.878906 544.660156 C 647.878906 544.660156 646.847656 540.035156 647.535156 538.148438 C 647.535156 538.148438 643.59375 541.234375 640.335938 541.40625 C 640.679688 539.007812 641.023438 536.265625 641.535156 532.839844 L 641.707031 531.46875 C 644.277344 513.132812 654.558594 503.195312 659.359375 498.914062 C 666.386719 513.820312 678.550781 525.8125 693.804688 532.496094 C 689.691406 537.121094 680.265625 547.574219 661.757812 550.488281 L 660.730469 550.660156 C 657.300781 551.171875 654.390625 551.6875 651.988281 552.027344 C 652.160156 550.144531 652.847656 546.890625 654.390625 545.003906 C 654.21875 544.832031 651.988281 545.519531 647.878906 544.660156 Z M 616.175781 470.125 C 616.175781 470.125 618.746094 466.1875 620.457031 465.328125 C 620.457031 465.328125 615.488281 464.644531 613.089844 462.585938 C 614.972656 461.046875 617.203125 459.332031 619.945312 457.277344 L 621.144531 456.417969 C 636.050781 445.109375 650.449219 445.625 656.789062 445.796875 C 654.046875 453.335938 652.675781 461.386719 652.675781 469.785156 C 652.675781 478.179688 654.390625 486.402344 657.132812 493.773438 C 650.960938 494.113281 636.910156 494.972656 621.828125 483.835938 L 620.972656 483.148438 C 618.230469 481.09375 615.832031 479.378906 613.945312 478.007812 C 615.316406 476.980469 618.230469 475.09375 620.628906 474.753906 C 620.628906 474.925781 618.402344 473.726562 616.175781 470.125 Z M 646.507812 395.25 C 646.507812 395.25 651.132812 394.222656 653.019531 394.90625 C 653.019531 394.90625 650.105469 390.964844 649.761719 387.710938 C 652.160156 388.050781 654.902344 388.394531 658.332031 388.910156 L 659.703125 389.082031 C 678.378906 391.652344 688.320312 402.445312 692.433594 406.898438 C 677.523438 413.925781 665.527344 426.089844 658.671875 441.167969 C 654.046875 437.058594 643.421875 427.804688 640.507812 408.957031 L 640.335938 407.929688 C 639.824219 404.5 639.308594 401.589844 638.964844 399.191406 C 640.679688 399.359375 644.105469 400.046875 645.992188 401.589844 C 646.164062 401.589844 645.648438 399.191406 646.507812 395.25 Z M 707 369.203125 L 707.683594 368.347656 C 709.742188 365.605469 711.453125 363.207031 712.824219 361.324219 C 713.855469 362.695312 715.738281 365.605469 716.082031 368.003906 C 716.082031 368.003906 717.28125 365.949219 720.707031 363.550781 C 720.707031 363.550781 724.648438 366.121094 725.507812 367.832031 C 725.507812 367.832031 726.191406 362.863281 728.25 360.464844 C 729.789062 362.351562 731.503906 364.578125 733.5625 367.320312 L 734.417969 368.519531 C 745.898438 383.769531 745.214844 398.332031 745.042969 404.5 C 737.503906 401.761719 729.621094 400.390625 721.222656 400.390625 C 712.652344 400.390625 704.429688 402.101562 696.886719 405.015625 C 689.347656 407.929688 697.058594 405.015625 697.058594 404.84375 C 696.71875 398.847656 695.6875 384.625 707 369.203125 Z M 795.597656 394.222656 C 795.597656 394.222656 796.625 398.847656 795.9375 400.730469 C 795.9375 400.730469 799.878906 397.648438 803.136719 397.476562 C 802.792969 399.875 802.449219 402.617188 801.9375 406.042969 L 801.765625 407.414062 C 799.195312 425.75 788.914062 435.6875 784.113281 439.96875 C 777.089844 425.0625 764.75 413.070312 749.839844 406.386719 C 753.953125 401.761719 763.378906 391.308594 781.886719 388.394531 L 782.914062 388.222656 C 786.34375 387.710938 789.085938 387.195312 791.65625 386.851562 C 791.484375 388.566406 790.796875 391.992188 789.253906 393.878906 C 789.085938 394.050781 791.484375 393.363281 795.597656 394.222656 Z M 786.683594 492.914062 C 789.425781 485.375 790.796875 477.324219 790.796875 468.925781 C 790.796875 460.53125 789.085938 452.308594 786.34375 444.9375 C 792.511719 444.597656 806.5625 443.738281 821.644531 454.875 L 822.5 455.5625 C 825.242188 457.617188 827.640625 459.332031 829.527344 460.703125 C 828.15625 461.730469 825.242188 463.785156 822.84375 463.957031 C 822.84375 463.957031 824.898438 465.15625 827.300781 468.585938 C 827.300781 468.585938 824.730469 472.523438 823.015625 473.554688 C 823.015625 473.554688 827.984375 474.238281 830.382812 476.292969 C 828.5 477.835938 826.269531 479.550781 823.527344 481.605469 L 822.5 482.464844 C 807.25 493.601562 792.855469 493.257812 786.683594 492.914062 Z M 813.761719 345.386719 C 817.875 346.074219 821.644531 346.414062 825.242188 346.414062 C 824.730469 348.128906 823.1875 351.726562 821.128906 354.296875 C 821.128906 354.296875 825.414062 352.414062 830.554688 352.925781 C 830.554688 352.925781 830.042969 357.722656 827.300781 361.324219 C 827.300781 361.324219 830.726562 359.4375 836.039062 358.753906 C 836.039062 358.753906 836.039062 362.007812 834.324219 367.492188 C 834.324219 367.492188 837.582031 363.550781 843.75 362.523438 C 843.75 362.523438 843.578125 363.550781 844.09375 365.949219 C 844.265625 369.203125 844.605469 372.804688 845.292969 376.402344 C 848.035156 390.621094 842.550781 400.902344 839.808594 405.359375 C 838.4375 404.84375 837.066406 404.332031 835.523438 403.644531 C 821.128906 397.820312 810.164062 397.304688 806.390625 397.304688 C 807.761719 388.222656 808.449219 383.769531 809.476562 381.199219 C 809.648438 380.511719 809.132812 380.171875 808.621094 380.34375 C 806.050781 381.371094 801.59375 382.226562 792.167969 383.597656 C 792.167969 380.171875 791.65625 369.203125 785.484375 354.46875 C 785.144531 353.441406 784.628906 352.585938 784.285156 351.726562 C 787.882812 349.328125 798.339844 342.644531 813.761719 345.386719 Z M 775.546875 336.136719 C 776.574219 341.277344 778.460938 347.445312 782.058594 356.011719 C 786.855469 367.492188 787.199219 378.972656 787.199219 384.625 C 785.3125 384.96875 783.429688 385.140625 781.203125 385.480469 C 770.40625 387.195312 762.179688 390.964844 756.179688 394.90625 C 756.695312 389.765625 761.152344 375.886719 763.550781 368.175781 C 764.40625 365.433594 763.378906 364.921875 762.007812 367.492188 C 758.238281 375.03125 751.726562 387.539062 748.46875 391.652344 C 746.925781 384.625 743.84375 376.058594 737.160156 367.148438 C 736.132812 365.605469 735.101562 364.234375 734.074219 363.035156 C 738.015625 358.753906 745.898438 350.355469 757.039062 345.558594 C 765.605469 342.132812 771.261719 339.046875 775.546875 336.136719 Z M 698.429688 316.601562 C 701.859375 314.203125 704.769531 311.804688 707.339844 309.234375 C 708.199219 310.949219 709.742188 314.546875 709.914062 317.628906 C 709.914062 317.628906 711.796875 313.347656 715.566406 310.089844 C 715.566406 310.089844 718.480469 313.859375 719.335938 318.316406 C 719.335938 318.316406 720.367188 314.71875 723.621094 310.261719 C 723.621094 310.261719 725.847656 312.660156 728.589844 317.628906 C 728.589844 317.628906 728.078125 312.488281 731.675781 307.519531 C 731.675781 307.519531 732.363281 308.207031 734.246094 309.746094 C 736.644531 311.976562 739.386719 314.203125 742.472656 316.257812 C 754.980469 324.65625 758.066406 336.304688 759.09375 341.277344 C 758.066406 341.789062 756.867188 342.304688 755.667969 342.644531 C 741.273438 348.644531 733.21875 356.011719 730.648438 358.753906 C 724.820312 351.042969 722.25 347.273438 721.050781 344.703125 C 720.707031 344.1875 720.195312 344.1875 719.851562 344.703125 C 718.652344 347.273438 716.082031 351.042969 710.597656 358.753906 C 708.027344 356.183594 699.972656 348.816406 685.40625 342.988281 C 684.207031 342.476562 683.179688 342.132812 682.152344 341.617188 C 683.179688 337.335938 685.578125 325.511719 698.429688 316.601562 Z M 659.53125 356.695312 C 662.957031 348.128906 664.84375 341.960938 665.699219 336.820312 C 669.984375 339.734375 675.636719 342.816406 684.207031 346.246094 C 695.515625 350.871094 703.398438 359.09375 707.511719 363.378906 C 706.484375 364.75 705.628906 366.121094 704.429688 367.492188 C 697.917969 376.402344 694.832031 385.140625 693.460938 392.164062 C 690.203125 388.222656 683.351562 375.542969 679.582031 368.003906 C 678.210938 365.605469 677.351562 365.949219 678.210938 368.691406 C 680.78125 376.230469 685.40625 390.109375 685.921875 395.25 C 679.921875 391.308594 671.695312 387.539062 660.730469 385.996094 C 657.988281 385.652344 654.390625 385.140625 654.902344 385.140625 C 654.730469 379.828125 654.730469 368.175781 659.53125 356.695312 Z M 597.324219 377.429688 C 598.007812 373.316406 598.351562 369.546875 598.351562 365.949219 C 600.066406 366.632812 603.664062 368.003906 606.234375 370.0625 C 606.234375 370.0625 604.347656 365.777344 604.863281 360.636719 C 604.863281 360.636719 609.660156 361.152344 613.261719 363.894531 C 613.261719 363.894531 611.375 360.464844 610.519531 355.152344 C 610.519531 355.152344 613.773438 355.152344 619.257812 356.867188 C 619.257812 356.867188 615.316406 353.613281 614.289062 347.445312 C 614.289062 347.445312 615.316406 347.613281 617.714844 347.101562 C 620.972656 346.929688 624.398438 346.585938 628 345.902344 C 642.734375 342.988281 653.1875 348.984375 657.300781 351.726562 C 656.789062 352.925781 656.445312 354.125 655.929688 355.324219 C 649.933594 370.0625 649.589844 381.199219 649.589844 384.625 C 650.277344 384.796875 635.882812 382.570312 632.96875 381.542969 C 632.453125 381.371094 631.941406 381.710938 632.109375 382.398438 C 633.140625 385.140625 635.367188 398.847656 635.367188 398.332031 C 631.769531 398.332031 620.800781 398.847656 606.40625 405.015625 C 605.207031 405.53125 604.179688 405.871094 603.148438 406.386719 C 600.921875 402.445312 594.582031 392.507812 597.324219 377.429688 Z M 588.414062 414.609375 C 593.554688 413.753906 599.722656 411.699219 608.121094 408.101562 C 619.257812 403.300781 630.738281 403.472656 636.738281 403.816406 C 636.738281 404.160156 637.253906 407.242188 637.59375 409.46875 C 639.308594 420.4375 643.25 428.832031 647.191406 434.65625 C 642.050781 434.144531 628.339844 430.03125 620.285156 427.460938 C 617.542969 426.605469 617.203125 427.632812 619.773438 429.003906 C 626.96875 432.601562 639.992188 439.113281 644.105469 442.367188 C 637.082031 443.910156 628.511719 446.996094 619.773438 453.675781 C 617.542969 455.21875 615.660156 456.761719 613.945312 458.132812 C 614.460938 457.789062 614.972656 457.445312 615.488281 456.933594 C 611.375 452.992188 602.808594 444.425781 598.007812 432.945312 C 594.410156 424.550781 591.324219 418.894531 588.414062 414.609375 Z M 568.703125 491.714844 C 566.304688 488.289062 563.90625 485.375 561.335938 482.804688 C 563.050781 482.121094 566.648438 480.40625 569.734375 480.234375 C 569.734375 480.234375 565.449219 478.523438 562.191406 474.582031 C 562.191406 474.582031 565.964844 471.667969 570.417969 470.8125 C 570.417969 470.8125 566.820312 469.785156 562.363281 466.527344 C 562.363281 466.527344 564.761719 464.300781 569.734375 461.558594 C 569.734375 461.558594 564.59375 462.074219 559.621094 458.476562 C 559.621094 458.476562 560.480469 457.789062 561.851562 455.90625 C 564.078125 453.507812 566.304688 450.765625 568.363281 447.679688 C 576.757812 435.171875 588.414062 432.089844 593.382812 431.058594 C 593.894531 432.089844 594.410156 433.289062 594.925781 434.488281 C 601.09375 449.222656 609.148438 457.617188 611.546875 460.015625 C 603.664062 465.84375 599.894531 468.585938 597.324219 469.785156 C 596.808594 470.125 596.808594 470.640625 597.324219 470.984375 C 599.722656 472.011719 603.492188 474.582031 610.691406 479.722656 C 608.121094 482.292969 600.75 490.515625 594.925781 504.910156 C 594.582031 505.9375 594.066406 506.792969 593.726562 507.824219 C 589.097656 506.964844 577.617188 504.394531 568.703125 491.714844 Z M 588.582031 524.785156 C 591.496094 520.5 594.582031 514.847656 598.007812 506.28125 C 602.636719 494.972656 610.863281 487.089844 615.144531 482.976562 C 616.6875 484.003906 618.230469 485.203125 620.117188 486.574219 C 629.027344 493.085938 637.765625 496.171875 644.792969 497.542969 C 640.679688 500.96875 628.339844 507.480469 620.800781 511.421875 C 618.402344 512.792969 618.746094 513.648438 621.488281 512.792969 C 629.027344 510.222656 642.734375 505.59375 648.046875 505.082031 C 644.105469 511.078125 640.335938 519.472656 638.792969 530.269531 C 638.453125 532.152344 638.28125 533.867188 638.109375 535.410156 C 632.453125 535.582031 619.945312 535.410156 608.460938 530.78125 C 599.894531 527.527344 593.726562 525.640625 588.582031 524.785156 Z M 629.371094 593.152344 C 625.257812 592.464844 621.488281 592.125 617.886719 592.125 C 618.574219 590.410156 619.945312 586.8125 622 584.242188 C 622 584.242188 617.714844 586.125 612.574219 585.613281 C 612.574219 585.613281 613.089844 580.816406 615.832031 577.21875 C 615.832031 577.21875 612.402344 579.101562 607.089844 579.785156 C 607.089844 579.785156 607.089844 576.53125 608.804688 571.046875 C 608.804688 571.046875 605.378906 574.988281 599.378906 576.015625 C 599.378906 576.015625 599.550781 574.988281 599.039062 572.589844 C 598.867188 569.335938 598.523438 565.90625 597.835938 562.308594 C 594.925781 547.574219 600.921875 537.121094 603.664062 532.839844 C 604.863281 533.351562 605.890625 533.695312 607.089844 534.210938 C 621.828125 540.207031 633.652344 540.550781 637.253906 540.550781 C 635.882812 550.316406 635.023438 554.941406 633.996094 557.683594 C 633.824219 558.367188 634.339844 558.710938 634.851562 558.539062 C 637.421875 557.511719 650.617188 555.285156 650.449219 555.285156 C 650.449219 558.882812 651.132812 569.847656 657.132812 584.242188 C 657.472656 585.097656 657.816406 585.957031 658.160156 586.8125 C 654.558594 589.382812 644.449219 595.894531 629.371094 593.152344 Z M 666.898438 602.746094 C 665.871094 597.605469 663.984375 591.4375 660.386719 583.042969 C 655.589844 571.90625 655.761719 560.425781 656.101562 554.429688 C 655.246094 554.597656 659.015625 553.914062 662.273438 553.398438 C 673.066406 551.6875 681.464844 547.917969 687.292969 543.976562 C 686.777344 549.117188 682.664062 562.824219 680.09375 570.878906 C 679.410156 573.617188 680.265625 573.960938 681.636719 571.390625 C 685.234375 564.367188 691.574219 551.515625 694.832031 547.230469 C 696.375 554.257812 699.457031 562.824219 706.140625 571.734375 C 707.171875 573.277344 708.199219 574.648438 709.226562 575.847656 C 705.113281 579.957031 696.546875 588.527344 685.234375 593.152344 C 676.839844 596.75 671.183594 599.835938 666.898438 602.746094 Z M 744.527344 621.9375 C 741.101562 624.335938 738.1875 626.734375 735.617188 629.304688 C 734.761719 627.761719 733.21875 624.164062 733.046875 620.910156 C 733.046875 620.910156 731.332031 625.195312 727.390625 628.449219 C 727.390625 628.449219 724.476562 624.679688 723.621094 620.222656 C 723.621094 620.222656 722.59375 623.824219 719.335938 628.277344 C 719.335938 628.277344 717.109375 625.878906 714.367188 620.910156 C 714.367188 620.910156 714.882812 626.050781 711.28125 631.019531 C 711.28125 631.019531 710.597656 630.164062 708.710938 628.792969 C 706.3125 626.5625 703.570312 624.335938 700.488281 622.28125 C 688.148438 613.882812 684.890625 602.40625 683.863281 597.4375 C 684.722656 597.09375 685.75 596.578125 686.777344 596.234375 C 700.828125 590.238281 709.398438 582.527344 712.3125 579.617188 C 718.308594 587.667969 721.050781 591.4375 722.25 594.007812 C 722.59375 594.523438 723.109375 594.523438 723.449219 594.007812 C 724.648438 591.4375 727.21875 587.667969 732.875 579.957031 C 736.132812 583.042969 744.527344 590.238281 758.066406 595.722656 C 759.09375 596.066406 759.953125 596.40625 760.808594 596.921875 C 759.78125 601.375 757.210938 613.199219 744.527344 621.9375 Z M 777.773438 602.0625 C 773.488281 599.148438 767.835938 596.066406 759.265625 592.636719 C 748.296875 588.183594 739.730469 580.300781 735.445312 576.015625 C 736.472656 574.648438 737.671875 573.105469 738.875 571.390625 C 745.386719 562.480469 748.46875 553.742188 749.839844 546.71875 C 753.269531 551 759.78125 563.679688 763.378906 570.707031 C 764.75 573.105469 765.777344 572.933594 764.921875 570.191406 C 762.179688 562.136719 757.894531 548.773438 757.382812 543.460938 C 763.378906 547.402344 771.777344 551.171875 782.742188 552.714844 C 784.628906 553.058594 786.34375 553.230469 787.882812 553.398438 C 788.054688 554.597656 788.054688 555.113281 788.054688 555.96875 C 788.226562 562.308594 788.054688 572.246094 783.941406 582.1875 C 780.515625 590.753906 778.800781 596.921875 777.773438 602.0625 Z M 845.636719 561.109375 C 844.949219 565.222656 844.605469 568.992188 844.605469 572.589844 C 842.894531 572.078125 839.296875 570.535156 836.894531 568.476562 C 836.894531 568.476562 838.78125 572.761719 838.265625 577.902344 C 838.265625 577.902344 833.46875 577.386719 829.871094 574.648438 C 829.871094 574.648438 831.753906 578.074219 832.441406 583.386719 C 832.441406 583.386719 829.183594 583.386719 823.699219 581.671875 C 823.699219 581.671875 827.640625 584.925781 828.671875 591.097656 C 828.671875 591.097656 827.640625 590.925781 825.242188 591.4375 C 821.988281 591.609375 818.558594 591.953125 814.789062 592.636719 C 800.566406 595.378906 790.285156 589.894531 785.828125 587.15625 C 786.171875 585.957031 786.683594 584.925781 787.199219 583.558594 C 792.339844 571.21875 793.367188 561.28125 793.539062 556.484375 C 793.539062 555.628906 793.539062 554.769531 793.539062 554.257812 C 802.964844 555.628906 807.421875 556.3125 809.992188 557.339844 C 810.675781 557.511719 811.019531 557.167969 810.847656 556.484375 C 809.820312 553.914062 808.960938 549.289062 807.421875 539.519531 C 811.703125 539.351562 823.015625 538.492188 836.554688 532.839844 L 839.125 531.8125 C 841.695312 535.582031 848.378906 545.859375 845.636719 561.109375 Z M 855.0625 523.070312 C 849.917969 523.929688 843.75 525.984375 835.351562 529.582031 C 824.558594 534.210938 812.734375 534.550781 806.734375 534.550781 C 806.390625 532.839844 806.222656 531.125 805.878906 529.242188 C 804.164062 518.273438 800.222656 509.878906 796.109375 503.882812 C 801.59375 504.566406 814.960938 508.851562 822.5 511.25 C 825.242188 512.105469 825.585938 511.078125 823.1875 509.707031 C 815.644531 505.9375 803.136719 499.597656 799.023438 496.171875 C 806.050781 494.628906 814.617188 491.542969 823.527344 484.863281 C 825.070312 483.664062 826.613281 482.464844 827.984375 481.433594 C 832.269531 485.375 840.664062 493.257812 845.292969 504.394531 C 849.0625 513.132812 852.148438 518.789062 855.0625 523.070312 Z M 881.109375 482.632812 C 878.882812 485.035156 876.652344 487.773438 874.597656 490.859375 C 866.542969 502.851562 855.574219 506.28125 850.261719 507.308594 C 849.75 506.109375 849.0625 504.738281 848.550781 503.195312 C 842.550781 488.804688 835.183594 480.75 832.441406 478.179688 C 839.808594 472.695312 843.578125 470.125 845.976562 468.925781 C 846.492188 468.753906 846.492188 468.070312 845.976562 467.726562 C 843.40625 466.527344 839.464844 463.957031 831.582031 458.132812 C 834.324219 455.390625 841.867188 446.824219 847.519531 432.601562 C 847.863281 431.917969 848.207031 431.058594 848.378906 430.375 C 853.003906 431.230469 865.171875 433.800781 874.082031 446.652344 C 876.480469 450.078125 878.882812 452.992188 881.453125 455.5625 C 879.910156 456.417969 876.308594 457.960938 873.054688 458.132812 C 873.054688 458.132812 877.339844 459.847656 880.59375 463.785156 C 880.59375 463.785156 876.824219 466.699219 872.367188 467.554688 C 872.367188 467.554688 875.96875 468.585938 880.421875 471.839844 C 880.421875 471.839844 878.023438 474.066406 873.054688 476.808594 C 873.054688 476.808594 878.195312 476.296875 883.164062 479.894531 C 883.164062 480.066406 882.480469 480.75 881.109375 482.632812 Z M 804.164062 466.355469 C 802.792969 466.355469 801.59375 467.554688 801.59375 468.925781 C 801.59375 470.296875 802.792969 471.496094 804.164062 471.496094 C 805.535156 471.496094 806.734375 470.296875 806.734375 468.925781 C 806.734375 467.554688 805.535156 466.355469 804.164062 466.355469 Z M 665.183594 530.097656 C 666.214844 529.070312 666.214844 527.527344 665.183594 526.5 C 664.15625 525.472656 662.613281 525.472656 661.585938 526.5 C 660.558594 527.527344 660.558594 529.070312 661.585938 530.097656 C 662.613281 531.125 664.328125 530.953125 665.183594 530.097656 Z M 638.792969 472.523438 C 640.164062 472.523438 641.363281 471.324219 641.363281 469.957031 C 641.363281 468.585938 640.164062 467.386719 638.792969 467.386719 C 637.421875 467.386719 636.222656 468.585938 636.222656 469.957031 C 636.394531 471.324219 637.421875 472.523438 638.792969 472.523438 Z M 721.050781 412.726562 C 689.691406 412.898438 664.5 438.429688 664.84375 469.785156 C 665.015625 495.65625 682.492188 517.246094 706.140625 523.929688 L 705.972656 517.589844 C 705.972656 517.589844 708.199219 512.449219 712.652344 512.105469 C 717.109375 511.933594 730.648438 511.933594 730.648438 511.933594 C 730.648438 511.933594 736.644531 512.621094 738.359375 518.101562 L 738.359375 523.242188 C 761.492188 516.046875 778.117188 494.285156 777.945312 468.753906 C 777.945312 437.570312 752.410156 412.382812 721.050781 412.726562 Z M 697.574219 446.824219 C 697.574219 446.824219 700.660156 442.199219 705.800781 436.714844 C 709.398438 432.773438 709.742188 427.976562 709.570312 425.40625 C 709.570312 424.378906 709.742188 424.207031 709.914062 425.40625 C 710.425781 427.289062 711.113281 431.058594 710.253906 436.886719 C 710.253906 436.886719 714.023438 432.257812 718.308594 428.832031 C 721.90625 425.75 724.136719 420.265625 724.136719 415.808594 C 724.136719 415.125 724.480469 414.609375 725.164062 415.640625 C 728.421875 420.4375 737.675781 434.144531 740.585938 440.484375 C 744.1875 448.023438 752.410156 466.527344 732.53125 472.183594 C 732.53125 472.183594 739.386719 462.929688 736.644531 448.878906 C 736.644531 448.878906 735.445312 453.164062 730.992188 457.277344 C 726.535156 461.386719 724.308594 465.328125 724.480469 466.355469 C 724.480469 466.355469 718.480469 461.730469 718.480469 446.652344 C 718.480469 446.652344 718.652344 451.105469 714.023438 454.707031 C 709.398438 458.304688 710.253906 466.1875 712.3125 467.726562 C 712.3125 467.726562 707.34375 465.328125 706.140625 460.015625 C 706.140625 460.015625 704.769531 467.554688 707.855469 471.324219 C 707.855469 471.324219 691.40625 460.015625 697.574219 446.824219 Z M 741.957031 477.835938 C 741.957031 479.035156 740.929688 480.066406 739.730469 480.066406 L 703.914062 480.234375 C 702.714844 480.234375 701.6875 479.207031 701.6875 478.007812 C 701.6875 476.808594 702.714844 475.78125 703.914062 475.78125 L 739.730469 475.609375 C 741.101562 475.609375 741.957031 476.636719 741.957031 477.835938 Z M 739.214844 515.019531 C 735.789062 509.363281 731.675781 510.222656 731.675781 510.222656 L 712.3125 510.390625 C 707.683594 510.390625 705.800781 514.847656 705.800781 514.847656 L 705.457031 500.96875 L 739.042969 500.796875 Z M 739.902344 498.914062 L 704.085938 499.082031 C 702.886719 499.082031 701.859375 498.054688 701.859375 496.855469 C 701.859375 495.65625 702.886719 494.628906 704.085938 494.628906 L 739.902344 494.457031 C 741.101562 494.457031 742.128906 495.484375 742.128906 496.683594 C 742.128906 497.882812 741.101562 498.742188 739.902344 498.914062 Z M 748.128906 492.574219 L 696.375 492.914062 C 693.289062 492.914062 690.890625 490.515625 690.890625 487.433594 C 690.890625 484.347656 693.289062 481.949219 696.375 481.949219 L 748.128906 481.605469 C 751.210938 481.605469 753.609375 484.003906 753.609375 487.089844 C 753.609375 490.175781 751.210938 492.574219 748.128906 492.574219 Z M 748.128906 492.574219 " fill-opacity="1" fill-rule="nonzero"/><path fill="#592b0b" d="M 758.753906 687.21875 L 768.863281 684.476562 L 763.894531 665.117188 C 761.492188 668.371094 759.09375 670.941406 756.695312 672.484375 L 754.8125 666.488281 C 757.382812 664.429688 758.921875 663.402344 759.4375 662.71875 C 759.953125 662.203125 760.808594 661.175781 761.835938 659.632812 C 762.863281 658.089844 763.550781 656.890625 763.894531 655.863281 L 768.007812 654.664062 L 775.03125 683.277344 L 783.773438 680.878906 L 785.3125 685.847656 L 759.78125 692.1875 Z M 740.246094 695.101562 C 736.472656 695.101562 733.390625 693.902344 730.992188 691.332031 C 728.25 688.589844 726.535156 684.476562 726.019531 679.167969 C 725.507812 674.027344 726.363281 669.570312 728.421875 666.144531 C 730.648438 662.546875 733.730469 660.660156 737.84375 660.320312 L 739.386719 660.320312 C 744.699219 660.320312 748.296875 662.71875 750.183594 667.6875 L 745.042969 669.570312 C 743.5 666.660156 741.785156 665.460938 739.386719 665.460938 L 738.703125 665.460938 C 735.960938 665.628906 734.246094 667 733.390625 669.398438 C 732.53125 671.96875 732.191406 674.539062 732.363281 677.109375 L 732.363281 677.453125 C 733.902344 674.539062 736.472656 673 740.246094 672.65625 L 741.445312 672.65625 C 744.1875 672.65625 746.585938 673.511719 748.640625 675.054688 C 751.039062 676.9375 752.410156 679.507812 752.582031 682.59375 C 752.925781 685.847656 751.898438 688.761719 749.839844 691.160156 C 747.785156 693.558594 744.871094 694.929688 741.445312 695.273438 C 741.273438 695.101562 740.757812 695.101562 740.246094 695.101562 Z M 739.730469 677.796875 C 738.015625 677.96875 736.644531 678.652344 735.617188 680.023438 C 734.589844 681.222656 734.246094 682.765625 734.417969 684.476562 C 734.589844 686.191406 735.273438 687.5625 736.472656 688.589844 C 737.503906 689.449219 738.875 689.960938 740.414062 689.960938 L 741.101562 689.960938 C 742.816406 689.789062 744.1875 689.105469 745.214844 688.078125 C 746.242188 686.878906 746.757812 685.335938 746.414062 683.277344 C 746.242188 681.910156 745.558594 680.539062 744.355469 679.507812 C 743.328125 678.480469 741.957031 677.96875 740.414062 677.96875 C 740.414062 677.796875 740.074219 677.796875 739.730469 677.796875 Z M 707 695.789062 C 704.085938 695.617188 701.859375 694.757812 699.972656 693.386719 C 698.085938 692.019531 697.058594 690.304688 696.546875 688.417969 L 701.859375 686.878906 C 703.398438 689.277344 705.113281 690.476562 707.339844 690.648438 C 709.914062 690.648438 711.625 689.617188 712.996094 687.5625 C 714.195312 685.679688 715.054688 682.9375 715.394531 679.507812 C 714.195312 681.050781 712.996094 682.078125 711.796875 682.59375 C 710.425781 683.109375 709.054688 683.277344 707.683594 683.449219 L 707 683.449219 C 703.742188 683.277344 701.171875 682.078125 699.117188 680.023438 C 697.058594 677.96875 696.03125 675.226562 696.203125 671.800781 C 696.375 668.542969 697.574219 665.800781 699.972656 663.746094 C 702.03125 661.859375 704.769531 660.832031 708.027344 660.832031 L 709.054688 660.832031 C 713.167969 661.003906 716.59375 662.71875 718.996094 665.628906 C 721.394531 668.542969 722.421875 672.828125 722.25 678.140625 C 721.90625 683.449219 720.535156 687.90625 717.964844 691.160156 C 715.566406 694.246094 712.140625 695.789062 708.199219 695.789062 Z M 708.542969 665.972656 C 707 665.972656 705.628906 666.488281 704.429688 667.515625 C 703.230469 668.542969 702.542969 670.085938 702.542969 671.628906 C 702.542969 673.167969 702.886719 674.539062 703.914062 675.738281 C 704.941406 676.9375 706.3125 677.625 708.199219 677.796875 L 708.371094 677.796875 C 710.253906 677.796875 711.625 677.28125 712.824219 676.425781 C 714.195312 675.398438 714.882812 673.855469 714.882812 671.800781 C 714.882812 670.429688 714.539062 669.058594 713.511719 667.859375 C 712.484375 666.660156 710.941406 665.972656 709.054688 665.972656 Z M 664.84375 689.105469 L 665.527344 683.792969 L 675.808594 685.507812 L 679.238281 665.800781 C 675.636719 667.859375 672.382812 669.058594 669.640625 669.570312 L 670.328125 663.230469 C 673.582031 662.375 675.296875 662.03125 676.152344 661.691406 C 676.839844 661.347656 678.039062 660.832031 679.578125 659.804688 C 681.121094 658.949219 682.320312 657.921875 683.007812 657.234375 L 687.292969 657.921875 L 681.980469 686.878906 L 690.890625 688.246094 L 690.203125 693.558594 L 690.203125 693.902344 Z M 664.84375 689.105469 " fill-opacity="1" fill-rule="nonzero"/><path fill="#592b0b" d="M 723.109375 706.066406 C 594.066406 708.296875 484.390625 599.835938 484.734375 470.984375 C 482.507812 342.132812 591.324219 231.957031 719.851562 232.8125 L 719.167969 138.746094 C 668.441406 141.488281 679.410156 134.460938 675.125 171.128906 C 673.066406 181.410156 664.671875 178.839844 657.644531 181.238281 C 646.675781 183.636719 635.710938 186.722656 625.085938 190.492188 C 618.914062 191.863281 613.261719 197.859375 607.777344 190.320312 C 603.492188 183.808594 594.410156 170.445312 594.410156 170.445312 C 594.410156 170.445312 591.152344 165.648438 585.671875 168.046875 C 564.933594 177.296875 544.371094 189.292969 526.035156 202.65625 C 520.894531 205.570312 523.804688 211.394531 523.804688 211.394531 C 523.804688 211.394531 531.175781 226.816406 533.746094 232.984375 C 536.660156 241.554688 530.832031 243.609375 526.207031 248.0625 C 516.265625 256.800781 507.011719 266.054688 498.273438 275.992188 C 496.902344 277.535156 495.53125 279.25 494.160156 280.789062 C 490.902344 284.730469 488.847656 289.015625 482.164062 286.101562 C 475.308594 282.675781 460.570312 275.820312 460.570312 275.820312 C 460.570312 275.820312 455.257812 273.25 451.832031 278.050781 C 445.492188 286.960938 439.492188 296.210938 434.011719 305.976562 C 411.046875 351.382812 410.359375 338.363281 439.835938 360.464844 C 448.40625 367.320312 439.152344 377.257812 437.953125 385.652344 C 434.011719 399.019531 430.925781 412.726562 428.867188 426.433594 C 428.011719 428.320312 426.125 430.203125 422.355469 430.375 C 414.644531 430.886719 398.535156 432.257812 398.535156 432.257812 C 398.535156 432.257812 392.710938 432.773438 392.195312 438.597656 C 389.96875 461.214844 390.3125 485.035156 392.882812 507.652344 C 393.054688 513.648438 399.394531 513.992188 399.394531 513.992188 C 399.394531 513.992188 416.53125 515.019531 423.042969 515.875 C 426.8125 516.390625 428.867188 518.445312 430.070312 520.332031 C 441.207031 588.355469 461.601562 572.078125 422.699219 598.976562 C 422.699219 598.976562 417.386719 602.574219 420.472656 607.714844 C 425.441406 618.511719 431.097656 629.132812 437.265625 639.585938 C 443.09375 649.179688 449.089844 658.433594 455.601562 667 C 459.199219 671.800781 464.34375 669.058594 464.34375 669.058594 C 506.839844 647.46875 479.765625 655.351562 536.488281 700.242188 C 537.515625 702.128906 538.371094 705.039062 537.003906 708.46875 C 534.601562 714.636719 527.40625 730.226562 527.40625 730.226562 C 527.40625 730.226562 524.664062 736.054688 529.804688 738.964844 C 548.3125 751.988281 569.046875 763.8125 589.953125 772.722656 C 595.4375 774.949219 598.695312 770.152344 598.695312 770.152344 C 624.398438 730.742188 604.863281 750.445312 673.925781 760.898438 C 675.808594 761.925781 678.378906 763.984375 678.894531 768.09375 C 683.691406 804.589844 672.726562 797.738281 723.449219 799.792969 Z M 723.109375 706.066406 " fill-opacity="1" fill-rule="nonzero"/><path fill="#592b0b" d="M 904.757812 653.121094 C 904.757812 653.121094 895.675781 650.039062 901.332031 630.847656 C 906.984375 611.65625 922.578125 592.296875 926.007812 587.496094 C 926.007812 587.496094 925.492188 624.335938 920.007812 637.703125 C 915.726562 648.152344 909.898438 652.949219 904.757812 653.121094 M 861.402344 693.21875 C 861.402344 693.21875 853.003906 688.589844 861.914062 670.597656 C 870.828125 652.609375 889.675781 636.332031 893.617188 632.21875 C 893.617188 632.21875 886.765625 668.542969 879.050781 680.539062 C 873.054688 690.132812 866.371094 693.730469 861.402344 693.21875 Z M 934.574219 650.039062 C 934.574219 650.039062 929.261719 644.898438 937.144531 631.191406 C 945.199219 617.484375 959.59375 606.6875 962.851562 603.945312 C 962.851562 603.945312 954.453125 633.246094 947.941406 642.328125 C 942.972656 649.351562 938.003906 651.410156 934.574219 650.039062 Z M 818.902344 716.519531 C 818.902344 716.519531 811.363281 711.378906 821.472656 695.101562 C 831.753906 678.996094 851.121094 665.117188 855.402344 661.691406 C 855.402344 661.691406 845.464844 695.445312 836.894531 706.238281 C 830.210938 714.804688 823.527344 717.546875 818.902344 716.519531 Z M 892.589844 691.332031 C 892.589844 691.332031 887.449219 685.679688 898.929688 674.367188 C 910.414062 663.230469 928.921875 655.691406 933.035156 653.808594 C 933.035156 653.808594 918.296875 679.339844 909.214844 686.535156 C 902.1875 692.1875 896.1875 693.21875 892.589844 691.332031 Z M 733.5625 738.453125 C 733.5625 738.453125 727.734375 732.285156 740.246094 720.117188 C 752.753906 707.953125 772.976562 699.726562 777.429688 697.5 C 777.429688 697.5 761.492188 725.085938 751.726562 732.96875 C 744.015625 739.136719 737.503906 740.164062 733.5625 738.453125 Z M 941.945312 665.117188 C 941.945312 665.117188 938.347656 650.722656 960.625 642.15625 C 982.902344 633.417969 1005.523438 626.394531 1015.460938 616.285156 C 1015.460938 616.285156 1007.40625 637.015625 976.5625 659.121094 C 949.65625 678.308594 944.171875 668.886719 941.945312 665.117188 Z M 838.609375 723.714844 C 838.609375 723.714844 835.011719 716.519531 849.578125 707.953125 C 863.972656 699.386719 884.363281 696.472656 888.992188 695.445312 C 888.992188 695.445312 867.398438 718.0625 856.433594 723.03125 C 847.691406 726.972656 841.695312 726.457031 838.609375 723.714844 Z M 903.042969 700.757812 C 903.042969 700.757812 903.386719 687.5625 925.320312 683.792969 C 947.257812 680.195312 969.191406 677.96875 980.503906 670.941406 C 980.503906 670.941406 968.164062 687.734375 935.261719 701.613281 C 906.644531 713.777344 904.242188 704.527344 903.042969 700.757812 Z M 777.429688 728.683594 C 777.429688 728.683594 771.261719 723.03125 782.742188 710.007812 C 794.226562 696.988281 813.761719 687.21875 818.046875 684.648438 C 818.046875 684.648438 804.335938 713.4375 795.082031 721.832031 C 787.886719 728.683594 781.542969 730.226562 777.429688 728.683594 Z M 782.574219 741.195312 C 782.574219 741.195312 780.515625 733.996094 795.082031 728.515625 C 809.648438 722.859375 828.839844 723.546875 833.296875 723.375 C 833.296875 723.375 809.820312 740.679688 799.023438 743.59375 C 790.457031 745.648438 784.972656 744.277344 782.574219 741.195312 Z M 861.402344 727.316406 C 861.402344 727.316406 864.144531 714.292969 886.421875 714.636719 C 908.699219 714.976562 930.632812 716.863281 942.972656 711.894531 C 942.972656 711.894531 927.890625 726.285156 892.933594 733.996094 C 862.601562 740.851562 861.746094 731.253906 861.402344 727.316406 Z M 809.476562 745.132812 C 809.476562 745.132812 816.160156 733.484375 839.125 738.964844 C 862.085938 744.449219 884.363281 751.132812 898.761719 749.417969 C 898.761719 749.417969 878.882812 759.355469 840.152344 758.671875 C 806.734375 758.15625 808.792969 748.902344 809.476562 745.132812 Z M 771.949219 758.671875 C 771.949219 758.671875 778.972656 747.875 799.710938 755.585938 C 820.445312 763.296875 840.324219 772.378906 853.691406 772.035156 C 853.691406 772.035156 834.496094 779.917969 799.195312 775.292969 C 768.175781 771.351562 770.917969 762.441406 771.949219 758.671875 Z M 728.078125 767.921875 C 728.078125 767.921875 735.960938 756.613281 756.523438 766.210938 C 777.261719 775.804688 796.96875 786.601562 810.675781 787.113281 C 810.675781 787.113281 790.625 794.480469 754.8125 787.457031 C 723.621094 781.289062 726.878906 771.863281 728.078125 767.921875 Z M 726.878906 750.960938 C 726.878906 750.960938 725.847656 744.105469 740.074219 741.707031 C 754.296875 739.308594 771.777344 743.078125 775.890625 743.765625 C 775.890625 743.765625 752.070312 755.242188 741.785156 755.929688 C 733.5625 756.273438 728.589844 754.042969 726.878906 750.960938 Z M 1013.746094 480.40625 C 1013.746094 480.40625 1002.609375 470.8125 1014.433594 448.535156 C 1026.257812 426.261719 1039.28125 405.1875 1041.167969 389.9375 C 1041.167969 389.9375 1047.164062 412.726562 1036.710938 452.136719 C 1027.457031 486.402344 1017.859375 482.121094 1013.746094 480.40625 Z M 1006.378906 548.773438 C 1006.378906 548.773438 996.953125 536.949219 1013.0625 516.902344 C 1029.171875 496.683594 1046.136719 478.007812 1050.761719 463.101562 C 1050.761719 463.101562 1052.476562 487.261719 1034.65625 524.785156 C 1019.058594 557.339844 1010.148438 551.171875 1006.378906 548.773438 Z M 974.332031 615.597656 C 974.332031 615.597656 968.847656 601.546875 990.269531 587.15625 C 1011.691406 572.761719 1033.625 560.082031 1042.367188 547.230469 C 1042.367188 547.230469 1036.882812 570.707031 1008.433594 601.203125 C 983.929688 627.59375 977.246094 619.023438 974.332031 615.597656 Z M 994.210938 404.5 C 994.210938 404.5 986.328125 407.070312 980.84375 390.449219 C 975.53125 374.003906 977.074219 352.242188 977.074219 347.273438 C 977.074219 347.273438 994.726562 373.488281 997.296875 385.824219 C 999.523438 395.421875 997.640625 401.761719 994.210938 404.5 Z M 999.179688 471.324219 C 999.179688 471.324219 990.957031 471.667969 989.414062 454.707031 C 987.871094 437.570312 994.210938 417.351562 995.410156 412.554688 C 995.410156 412.554688 1006.550781 442.027344 1006.378906 454.191406 C 1006.207031 463.957031 1003.121094 469.613281 999.179688 471.324219 Z M 991.128906 539.691406 C 991.128906 539.691406 982.730469 538.148438 984.957031 520.332031 C 987.1875 502.511719 998.152344 483.320312 1000.382812 478.695312 C 1000.382812 478.695312 1005.179688 511.589844 1002.265625 524.101562 C 1000.039062 533.867188 995.582031 538.835938 991.128906 539.691406 Z M 966.964844 598.464844 C 966.964844 598.464844 959.765625 595.035156 965.59375 579.785156 C 971.417969 564.367188 985.128906 549.628906 988.042969 546.03125 C 988.042969 546.03125 985.300781 576.53125 980.160156 586.984375 C 975.875 595.207031 970.90625 598.636719 966.964844 598.464844 Z M 973.992188 418.550781 C 973.992188 418.550781 966.105469 424.035156 954.113281 407.929688 C 942.117188 391.820312 936.117188 367.664062 934.234375 362.179688 C 934.234375 362.179688 963.367188 384.796875 970.734375 397.132812 C 976.390625 406.898438 976.730469 414.4375 973.988281 418.550781 Z M 977.074219 481.949219 C 977.074219 481.949219 967.992188 485.035156 960.964844 466.183594 C 953.941406 447.507812 954.625 422.492188 954.453125 416.839844 C 954.453125 416.839844 976.390625 446.480469 979.988281 460.53125 C 982.558594 471.496094 980.84375 478.863281 977.074219 481.949219 Z M 966.621094 549.457031 C 966.621094 549.457031 957.023438 550.144531 954.796875 530.269531 C 952.570312 510.390625 959.253906 486.402344 960.453125 480.75 C 960.453125 480.75 974.503906 514.847656 974.675781 529.242188 C 974.675781 540.550781 971.25 547.230469 966.621094 549.457031 Z M 939.886719 610.628906 C 939.886719 610.628906 930.292969 609.257812 932.347656 589.382812 C 934.402344 569.507812 946.058594 547.402344 948.457031 542.261719 C 948.457031 542.261719 954.796875 578.585938 951.882812 592.636719 C 949.65625 603.605469 944.6875 609.429688 939.886719 610.628906 Z M 875.625 206.597656 C 875.625 206.597656 865.515625 210.195312 855.574219 194.605469 C 845.636719 179.011719 836.894531 162.90625 827.8125 156.394531 C 827.8125 156.394531 844.605469 160.847656 866.027344 181.925781 C 884.535156 199.917969 878.195312 204.542969 875.625 206.597656 Z M 917.265625 234.527344 C 917.265625 234.527344 906.644531 236.753906 898.929688 219.792969 C 891.21875 203 884.878906 185.867188 876.824219 177.984375 C 876.824219 177.984375 892.933594 184.667969 911.097656 208.484375 C 926.863281 229.214844 920.007812 232.984375 917.265625 234.527344 Z M 956.851562 276.679688 C 956.851562 276.679688 945.542969 277.019531 940.917969 258.171875 C 936.117188 239.496094 932.691406 220.820312 925.835938 211.226562 C 925.835938 211.226562 941.085938 220.992188 955.3125 248.75 C 967.648438 272.910156 959.9375 275.480469 956.851562 276.679688 Z M 990.441406 338.535156 C 990.441406 338.535156 977.761719 335.621094 977.761719 313.515625 C 977.761719 291.242188 979.132812 269.480469 974.332031 256.972656 C 974.332031 256.972656 988.554688 272.222656 996.609375 307.175781 C 1003.464844 337.503906 994.210938 338.019531 990.441406 338.535156 Z M 890.875 240.867188 C 890.875 240.867188 886.25 247.550781 871.511719 238.984375 C 856.773438 230.414062 844.265625 213.964844 841.179688 210.367188 C 841.179688 210.367188 871.683594 218.421875 881.453125 225.617188 C 889.164062 231.101562 891.734375 236.753906 890.875 240.867188 Z M 937.488281 285.589844 C 937.488281 285.589844 931.492188 291.242188 919.839844 278.90625 C 908.011719 266.570312 900.128906 246.523438 898.074219 242.066406 C 898.074219 242.066406 924.980469 257.832031 932.347656 267.597656 C 938.175781 275.136719 939.375 281.648438 937.488281 285.589844 Z M 973.304688 339.90625 C 973.304688 339.90625 966.105469 344.015625 956.683594 329.625 C 947.257812 315.230469 943.144531 294.15625 941.945312 289.527344 C 941.945312 289.527344 965.9375 310.433594 971.761719 321.570312 C 976.046875 330.136719 975.875 336.476562 973.304688 339.90625 Z M 889.335938 260.058594 C 889.335938 260.058594 888.304688 269.652344 868.257812 268.109375 C 848.207031 266.570312 825.929688 255.433594 820.789062 253.203125 C 820.789062 253.203125 856.945312 245.835938 871.167969 248.40625 C 882.136719 250.632812 887.964844 255.261719 889.335938 260.058594 Z M 925.320312 304.4375 C 925.320312 304.4375 921.378906 313.175781 902.871094 305.808594 C 884.195312 298.269531 866.371094 280.960938 862.085938 277.363281 C 862.085938 277.363281 898.757812 281.304688 911.441406 287.988281 C 921.378906 293.128906 925.492188 299.296875 925.320312 304.4375 Z M 954.28125 357.382812 C 954.28125 357.382812 947.941406 364.578125 932.347656 352.070312 C 916.753906 339.5625 904.757812 317.628906 901.671875 312.832031 C 901.671875 312.832031 935.605469 327.394531 945.714844 337.503906 C 953.769531 345.386719 955.824219 352.585938 954.28125 357.382812 Z M 800.050781 178.496094 C 800.050781 178.496094 791.824219 182.78125 781.714844 170.617188 C 771.605469 158.449219 762.351562 145.941406 753.953125 141.316406 C 753.953125 141.316406 768.691406 143.199219 789.085938 158.449219 C 806.734375 171.816406 801.9375 176.441406 800.050781 178.496094 Z M 837.753906 191.347656 C 837.753906 191.347656 828.328125 195.460938 818.21875 181.238281 C 808.105469 166.847656 799.023438 152.109375 790.285156 146.457031 C 790.285156 146.457031 806.390625 149.539062 827.472656 168.21875 C 845.808594 184.496094 840.152344 189.292969 837.753906 191.347656 Z M 775.03125 190.492188 C 775.03125 190.492188 774.175781 197.175781 760.125 196.144531 C 745.898438 194.945312 730.304688 186.894531 726.535156 185.351562 C 726.535156 185.351562 752.070312 180.382812 762.179688 182.265625 C 769.890625 183.636719 774.003906 186.894531 775.03125 190.492188 Z M 833.296875 207.457031 C 833.296875 207.457031 830.898438 214.824219 815.476562 210.195312 C 800.050781 205.570312 784.628906 193.0625 780.859375 190.492188 C 780.859375 190.492188 810.332031 190.835938 821.128906 195.289062 C 829.355469 198.714844 833.125 203.515625 833.296875 207.457031 Z M 793.539062 211.226562 C 793.539062 211.226562 796.453125 220.304688 777.601562 227.160156 C 758.753906 234.011719 733.902344 232.984375 728.25 233.15625 C 728.25 233.15625 758.238281 211.738281 772.117188 208.140625 C 783.085938 205.398438 790.285156 207.285156 793.539062 211.226562 Z M 839.980469 231.445312 C 839.980469 231.445312 840.664062 241.039062 820.789062 243.265625 C 800.910156 245.492188 776.917969 238.46875 771.261719 237.269531 C 771.261719 237.269531 805.535156 223.390625 819.929688 223.390625 C 831.070312 223.390625 837.753906 226.988281 839.980469 231.445312 Z M 761.664062 170.445312 C 761.664062 170.445312 754.46875 174.042969 745.726562 163.589844 C 736.988281 153.140625 728.933594 142.171875 721.566406 138.230469 C 721.566406 138.230469 734.417969 139.773438 752.070312 153.140625 C 767.492188 164.789062 763.378906 168.902344 761.664062 170.445312 Z M 1013.578125 406.042969 C 1013.578125 406.042969 1000.039062 400.390625 1004.324219 375.542969 C 1008.777344 350.699219 1014.605469 326.539062 1011.519531 311.632812 C 1011.519531 311.632812 1024.371094 331.507812 1026.429688 372.117188 C 1028.484375 407.585938 1017.859375 406.386719 1013.578125 406.042969 Z M 1013.578125 406.042969 " fill-opacity="1" fill-rule="nonzero"/><g transform="matrix(1, 0, 0, 1, 246, 1189)"><g clip-path="url(#168336bfac)"><g fill="#000000" fill-opacity="1"><g transform="translate(0.784377, 77.835061)"><g><path d="M 2.625 -2.3125 C 4.113281 -2.3125 5.191406 -2.679688 5.859375 -3.421875 C 6.523438 -4.171875 6.921875 -5.132812 7.046875 -6.3125 C 7.179688 -7.5 7.25 -9.304688 7.25 -11.734375 L 7.25 -48.21875 C 7.25 -50.175781 7.328125 -51.847656 7.484375 -53.234375 L 2 -52.921875 L 2 -56.171875 C 5.09375 -56.171875 7.296875 -56.347656 8.609375 -56.703125 C 9.921875 -57.066406 10.9375 -57.582031 11.65625 -58.25 L 13.890625 -58.25 L 13.890625 -34.71875 C 15.691406 -36.207031 17.722656 -37.425781 19.984375 -38.375 C 22.242188 -39.332031 24.429688 -39.8125 26.546875 -39.8125 C 30.960938 -39.8125 34.175781 -38.421875 36.1875 -35.640625 C 38.195312 -32.867188 39.222656 -28.5 39.265625 -22.53125 L 39.34375 -8.171875 C 39.34375 -5.859375 39.242188 -4.113281 39.046875 -2.9375 L 43.90625 -3.15625 L 43.90625 0 L 28.15625 0 L 28.15625 -2.3125 C 29.65625 -2.3125 30.722656 -2.679688 31.359375 -3.421875 C 32.003906 -4.171875 32.390625 -5.125 32.515625 -6.28125 C 32.648438 -7.445312 32.71875 -9.265625 32.71875 -11.734375 L 32.71875 -22.53125 C 32.71875 -26.957031 32.019531 -30.257812 30.625 -32.4375 C 29.238281 -34.625 27.054688 -35.71875 24.078125 -35.71875 C 22.171875 -35.71875 20.273438 -35.265625 18.390625 -34.359375 C 16.515625 -33.460938 15.015625 -32.320312 13.890625 -30.9375 L 13.890625 -8.171875 C 13.890625 -6.171875 13.757812 -4.425781 13.5 -2.9375 L 18.359375 -3.15625 L 18.359375 0 L 2.625 0 Z M 2.625 -2.3125 "/></g></g></g><g fill="#000000" fill-opacity="1"><g transform="translate(46.310876, 77.835061)"><g><path d="M 17.90625 1.234375 C 10.851562 1.234375 7.351562 -3.5 7.40625 -12.96875 L 7.5625 -35.34375 L 1.625 -35.265625 L 1.625 -38.578125 C 4.09375 -38.628906 6.1875 -39.75 7.90625 -41.9375 C 9.632812 -44.125 10.910156 -46.601562 11.734375 -49.375 L 14.34375 -49.375 L 14.34375 -38.578125 L 27.3125 -38.578125 L 27.3125 -35.5625 L 14.34375 -35.421875 C 14.300781 -27.546875 14.265625 -22.085938 14.234375 -19.046875 C 14.210938 -16.015625 14.203125 -14.320312 14.203125 -13.96875 C 14.203125 -10.3125 14.632812 -7.59375 15.5 -5.8125 C 16.375 -4.039062 17.894531 -3.15625 20.0625 -3.15625 C 21.394531 -3.15625 22.71875 -3.566406 24.03125 -4.390625 C 25.34375 -5.210938 26.488281 -6.347656 27.46875 -7.796875 L 29.546875 -6.09375 C 27.546875 -3.113281 25.566406 -1.144531 23.609375 -0.1875 C 21.648438 0.757812 19.75 1.234375 17.90625 1.234375 Z M 17.90625 1.234375 "/></g></g></g><g fill="#000000" fill-opacity="1"><g transform="translate(76.944821, 77.835061)"><g><path d="M 17.90625 1.234375 C 10.851562 1.234375 7.351562 -3.5 7.40625 -12.96875 L 7.5625 -35.34375 L 1.625 -35.265625 L 1.625 -38.578125 C 4.09375 -38.628906 6.1875 -39.75 7.90625 -41.9375 C 9.632812 -44.125 10.910156 -46.601562 11.734375 -49.375 L 14.34375 -49.375 L 14.34375 -38.578125 L 27.3125 -38.578125 L 27.3125 -35.5625 L 14.34375 -35.421875 C 14.300781 -27.546875 14.265625 -22.085938 14.234375 -19.046875 C 14.210938 -16.015625 14.203125 -14.320312 14.203125 -13.96875 C 14.203125 -10.3125 14.632812 -7.59375 15.5 -5.8125 C 16.375 -4.039062 17.894531 -3.15625 20.0625 -3.15625 C 21.394531 -3.15625 22.71875 -3.566406 24.03125 -4.390625 C 25.34375 -5.210938 26.488281 -6.347656 27.46875 -7.796875 L 29.546875 -6.09375 C 27.546875 -3.113281 25.566406 -1.144531 23.609375 -0.1875 C 21.648438 0.757812 19.75 1.234375 17.90625 1.234375 Z M 17.90625 1.234375 "/></g></g></g><g fill="#000000" fill-opacity="1"><g transform="translate(106.807135, 77.835061)"><g><path d="M 2.703125 17.359375 C 4.191406 17.359375 5.253906 16.984375 5.890625 16.234375 C 6.535156 15.492188 6.910156 14.570312 7.015625 13.46875 C 7.117188 12.363281 7.195312 10.523438 7.25 7.953125 L 7.40625 -29.3125 C 7.40625 -31.476562 7.507812 -33.148438 7.71875 -34.328125 L 2.234375 -34.03125 L 2.234375 -37.265625 C 5.273438 -37.265625 7.359375 -37.429688 8.484375 -37.765625 C 9.617188 -38.097656 10.546875 -38.625 11.265625 -39.34375 L 13.578125 -39.34375 C 13.785156 -36.820312 13.890625 -35.4375 13.890625 -35.1875 C 15.429688 -36.570312 17.28125 -37.6875 19.4375 -38.53125 C 21.601562 -39.382812 23.738281 -39.8125 25.84375 -39.8125 C 28.882812 -39.8125 31.6875 -39.023438 34.25 -37.453125 C 36.820312 -35.890625 38.894531 -33.65625 40.46875 -30.75 C 42.039062 -27.84375 42.828125 -24.484375 42.828125 -20.671875 C 42.828125 -16.410156 41.925781 -12.617188 40.125 -9.296875 C 38.320312 -5.984375 35.914062 -3.398438 32.90625 -1.546875 C 29.894531 0.304688 26.640625 1.234375 23.140625 1.234375 C 19.597656 1.234375 16.515625 0.382812 13.890625 -1.3125 L 13.890625 11.5 C 13.890625 13.8125 13.785156 15.5625 13.578125 16.75 L 18.4375 16.515625 L 18.4375 19.671875 L 2.703125 19.671875 Z M 23 -1.859375 C 25.414062 -1.859375 27.507812 -2.601562 29.28125 -4.09375 C 31.050781 -5.582031 32.425781 -7.660156 33.40625 -10.328125 C 34.382812 -13.003906 34.875 -16.039062 34.875 -19.4375 C 34.875 -24.070312 33.882812 -27.992188 31.90625 -31.203125 C 29.925781 -34.421875 26.976562 -36.03125 23.0625 -36.03125 C 21.375 -36.03125 19.726562 -35.617188 18.125 -34.796875 C 16.53125 -33.972656 15.144531 -32.945312 13.96875 -31.71875 C 14.019531 -31.351562 14.046875 -29.78125 14.046875 -27 L 13.96875 -4.859375 C 16.59375 -2.859375 19.601562 -1.859375 23 -1.859375 Z M 23 -1.859375 "/></g></g></g><g fill="#000000" fill-opacity="1"><g transform="translate(152.873791, 77.835061)"><g><path d="M 19.21875 1.234375 C 16.789062 1.234375 14.570312 0.910156 12.5625 0.265625 C 10.5625 -0.367188 8.84375 -1.175781 7.40625 -2.15625 L 7.71875 0.546875 L 4.46875 0.546875 L 4.015625 -12.734375 L 6.40625 -12.734375 C 6.507812 -10.617188 7.085938 -8.738281 8.140625 -7.09375 C 9.191406 -5.445312 10.578125 -4.148438 12.296875 -3.203125 C 14.023438 -2.253906 15.867188 -1.78125 17.828125 -1.78125 C 20.035156 -1.78125 22 -2.304688 23.71875 -3.359375 C 25.445312 -4.410156 26.3125 -5.914062 26.3125 -7.875 C 26.3125 -9.3125 25.882812 -10.519531 25.03125 -11.5 C 24.1875 -12.476562 23.132812 -13.285156 21.875 -13.921875 C 20.613281 -14.566406 18.851562 -15.328125 16.59375 -16.203125 C 13.863281 -17.234375 11.675781 -18.195312 10.03125 -19.09375 C 8.382812 -20 6.96875 -21.222656 5.78125 -22.765625 C 4.601562 -24.304688 4.015625 -26.257812 4.015625 -28.625 C 4.015625 -30.320312 4.425781 -32.019531 5.25 -33.71875 C 6.070312 -35.414062 7.457031 -36.851562 9.40625 -38.03125 C 11.363281 -39.21875 13.960938 -39.8125 17.203125 -39.8125 C 18.796875 -39.8125 20.425781 -39.550781 22.09375 -39.03125 C 23.769531 -38.519531 25.328125 -37.675781 26.765625 -36.5 L 26.625 -39.421875 L 29.859375 -39.421875 L 29.859375 -25.921875 L 27.390625 -25.921875 C 27.234375 -28.910156 26.316406 -31.492188 24.640625 -33.671875 C 22.972656 -35.859375 20.625 -36.953125 17.59375 -36.953125 C 15.28125 -36.953125 13.441406 -36.375 12.078125 -35.21875 C 10.710938 -34.0625 10.03125 -32.6875 10.03125 -31.09375 C 10.03125 -29.601562 10.476562 -28.34375 11.375 -27.3125 C 12.28125 -26.28125 13.398438 -25.40625 14.734375 -24.6875 C 16.078125 -23.96875 17.878906 -23.171875 20.140625 -22.296875 C 22.816406 -21.210938 24.976562 -20.207031 26.625 -19.28125 C 28.269531 -18.363281 29.671875 -17.144531 30.828125 -15.625 C 31.984375 -14.101562 32.5625 -12.265625 32.5625 -10.109375 C 32.5625 -7.640625 31.929688 -5.554688 30.671875 -3.859375 C 29.410156 -2.160156 27.765625 -0.882812 25.734375 -0.03125 C 23.703125 0.8125 21.53125 1.234375 19.21875 1.234375 Z M 19.21875 1.234375 "/></g></g></g><g fill="#000000" fill-opacity="1"><g transform="translate(188.600531, 77.835061)"><g><path d="M 9.640625 1.234375 C 8.410156 1.234375 7.359375 0.757812 6.484375 -0.1875 C 5.609375 -1.144531 5.171875 -2.316406 5.171875 -3.703125 C 5.171875 -5.085938 5.617188 -6.269531 6.515625 -7.25 C 7.421875 -8.226562 8.488281 -8.71875 9.71875 -8.71875 C 11.007812 -8.71875 12.078125 -8.226562 12.921875 -7.25 C 13.773438 -6.269531 14.203125 -5.085938 14.203125 -3.703125 C 14.203125 -2.316406 13.75 -1.144531 12.84375 -0.1875 C 11.945312 0.757812 10.878906 1.234375 9.640625 1.234375 Z M 9.640625 -29.859375 C 8.410156 -29.859375 7.359375 -30.332031 6.484375 -31.28125 C 5.609375 -32.238281 5.171875 -33.410156 5.171875 -34.796875 C 5.171875 -36.179688 5.617188 -37.363281 6.515625 -38.34375 C 7.421875 -39.320312 8.488281 -39.8125 9.71875 -39.8125 C 11.007812 -39.8125 12.078125 -39.320312 12.921875 -38.34375 C 13.773438 -37.363281 14.203125 -36.179688 14.203125 -34.796875 C 14.203125 -33.410156 13.75 -32.238281 12.84375 -31.28125 C 11.945312 -30.332031 10.878906 -29.859375 9.640625 -29.859375 Z M 9.640625 -29.859375 "/></g></g></g><g fill="#000000" fill-opacity="1"><g transform="translate(207.891426, 77.835061)"><g><path d="M 1.625 18.125 L 46.671875 -58.640625 L 51.6875 -55.46875 L 6.09375 20.90625 Z M 1.625 18.125 "/></g></g></g><g fill="#000000" fill-opacity="1"><g transform="translate(236.364831, 77.835061)"><g><path d="M 1.625 18.125 L 46.671875 -58.640625 L 51.6875 -55.46875 L 6.09375 20.90625 Z M 1.625 18.125 "/></g></g></g><g fill="#000000" fill-opacity="1"><g transform="translate(288.681743, 77.835061)"><g><path d="M 6.5625 -29.390625 C 5.582031 -32.171875 4.910156 -34.253906 4.546875 -35.640625 L 0.46875 -35.421875 L 0.46875 -38.578125 L 16.8125 -38.578125 L 16.8125 -36.265625 C 14.195312 -36.210938 12.890625 -35.03125 12.890625 -32.71875 C 12.890625 -31.53125 13.222656 -29.9375 13.890625 -27.9375 L 19.90625 -9.640625 L 22.21875 -16.515625 C 25.40625 -25.867188 27.875 -33.222656 29.625 -38.578125 L 32.796875 -38.578125 L 43.046875 -9.109375 L 50.453125 -30.484375 C 51.328125 -33.097656 52.101562 -34.816406 52.78125 -35.640625 L 48.296875 -35.421875 L 48.296875 -38.578125 L 61.71875 -38.578125 L 61.71875 -36.265625 C 60.019531 -36.160156 58.679688 -35.863281 57.703125 -35.375 C 56.734375 -34.882812 55.988281 -34.238281 55.46875 -33.4375 C 54.957031 -32.644531 54.445312 -31.554688 53.9375 -30.171875 L 42.828125 0.234375 L 39.734375 0.234375 L 29.625 -28.9375 L 19.59375 0.234375 L 16.671875 0.234375 Z M 6.5625 -29.390625 "/></g></g></g><g fill="#000000" fill-opacity="1"><g transform="translate(352.573179, 77.835061)"><g><path d="M 6.5625 -29.390625 C 5.582031 -32.171875 4.910156 -34.253906 4.546875 -35.640625 L 0.46875 -35.421875 L 0.46875 -38.578125 L 16.8125 -38.578125 L 16.8125 -36.265625 C 14.195312 -36.210938 12.890625 -35.03125 12.890625 -32.71875 C 12.890625 -31.53125 13.222656 -29.9375 13.890625 -27.9375 L 19.90625 -9.640625 L 22.21875 -16.515625 C 25.40625 -25.867188 27.875 -33.222656 29.625 -38.578125 L 32.796875 -38.578125 L 43.046875 -9.109375 L 50.453125 -30.484375 C 51.328125 -33.097656 52.101562 -34.816406 52.78125 -35.640625 L 48.296875 -35.421875 L 48.296875 -38.578125 L 61.71875 -38.578125 L 61.71875 -36.265625 C 60.019531 -36.160156 58.679688 -35.863281 57.703125 -35.375 C 56.734375 -34.882812 55.988281 -34.238281 55.46875 -33.4375 C 54.957031 -32.644531 54.445312 -31.554688 53.9375 -30.171875 L 42.828125 0.234375 L 39.734375 0.234375 L 29.625 -28.9375 L 19.59375 0.234375 L 16.671875 0.234375 Z M 6.5625 -29.390625 "/></g></g></g><g fill="#000000" fill-opacity="1"><g transform="translate(416.464616, 77.835061)"><g><path d="M 6.5625 -29.390625 C 5.582031 -32.171875 4.910156 -34.253906 4.546875 -35.640625 L 0.46875 -35.421875 L 0.46875 -38.578125 L 16.8125 -38.578125 L 16.8125 -36.265625 C 14.195312 -36.210938 12.890625 -35.03125 12.890625 -32.71875 C 12.890625 -31.53125 13.222656 -29.9375 13.890625 -27.9375 L 19.90625 -9.640625 L 22.21875 -16.515625 C 25.40625 -25.867188 27.875 -33.222656 29.625 -38.578125 L 32.796875 -38.578125 L 43.046875 -9.109375 L 50.453125 -30.484375 C 51.328125 -33.097656 52.101562 -34.816406 52.78125 -35.640625 L 48.296875 -35.421875 L 48.296875 -38.578125 L 61.71875 -38.578125 L 61.71875 -36.265625 C 60.019531 -36.160156 58.679688 -35.863281 57.703125 -35.375 C 56.734375 -34.882812 55.988281 -34.238281 55.46875 -33.4375 C 54.957031 -32.644531 54.445312 -31.554688 53.9375 -30.171875 L 42.828125 0.234375 L 39.734375 0.234375 L 29.625 -28.9375 L 19.59375 0.234375 L 16.671875 0.234375 Z M 6.5625 -29.390625 "/></g></g></g><g fill="#000000" fill-opacity="1"><g transform="translate(474.491599, 77.835061)"><g><path d="M 9.40625 1.234375 C 8.175781 1.234375 7.125 0.757812 6.25 -0.1875 C 5.375 -1.144531 4.9375 -2.316406 4.9375 -3.703125 C 4.9375 -5.085938 5.382812 -6.269531 6.28125 -7.25 C 7.1875 -8.226562 8.253906 -8.71875 9.484375 -8.71875 C 10.773438 -8.71875 11.84375 -8.226562 12.6875 -7.25 C 13.539062 -6.269531 13.96875 -5.085938 13.96875 -3.703125 C 13.96875 -2.316406 13.515625 -1.144531 12.609375 -0.1875 C 11.710938 0.757812 10.644531 1.234375 9.40625 1.234375 Z M 9.40625 1.234375 "/></g></g></g><g fill="#000000" fill-opacity="1"><g transform="translate(493.473869, 77.835061)"><g><path d="M 11.03125 -46.984375 C 9.945312 -46.984375 8.992188 -47.429688 8.171875 -48.328125 C 7.347656 -49.234375 6.9375 -50.304688 6.9375 -51.546875 C 6.9375 -52.773438 7.359375 -53.851562 8.203125 -54.78125 C 9.054688 -55.707031 10.023438 -56.171875 11.109375 -56.171875 C 12.296875 -56.171875 13.285156 -55.71875 14.078125 -54.8125 C 14.878906 -53.914062 15.28125 -52.828125 15.28125 -51.546875 C 15.28125 -50.304688 14.851562 -49.234375 14 -48.328125 C 13.15625 -47.429688 12.164062 -46.984375 11.03125 -46.984375 Z M 3.390625 -2.3125 C 4.878906 -2.3125 5.945312 -2.679688 6.59375 -3.421875 C 7.238281 -4.171875 7.625 -5.125 7.75 -6.28125 C 7.882812 -7.445312 7.953125 -9.265625 7.953125 -11.734375 L 7.953125 -29.3125 C 7.953125 -30.8125 8.050781 -32.484375 8.25 -34.328125 L 2.78125 -34.03125 L 2.78125 -37.265625 C 5.8125 -37.265625 7.984375 -37.441406 9.296875 -37.796875 C 10.609375 -38.160156 11.625 -38.675781 12.34375 -39.34375 L 14.578125 -39.34375 L 14.578125 -8.171875 C 14.578125 -5.859375 14.476562 -4.113281 14.28125 -2.9375 L 19.140625 -3.15625 L 19.140625 0 L 3.390625 0 Z M 3.390625 -2.3125 "/></g></g></g><g fill="#000000" fill-opacity="1"><g transform="translate(515.156807, 77.835061)"><g><path d="M 11.03125 -46.984375 C 9.945312 -46.984375 8.992188 -47.429688 8.171875 -48.328125 C 7.347656 -49.234375 6.9375 -50.304688 6.9375 -51.546875 C 6.9375 -52.773438 7.359375 -53.851562 8.203125 -54.78125 C 9.054688 -55.707031 10.023438 -56.171875 11.109375 -56.171875 C 12.296875 -56.171875 13.285156 -55.71875 14.078125 -54.8125 C 14.878906 -53.914062 15.28125 -52.828125 15.28125 -51.546875 C 15.28125 -50.304688 14.851562 -49.234375 14 -48.328125 C 13.15625 -47.429688 12.164062 -46.984375 11.03125 -46.984375 Z M 3.390625 -2.3125 C 4.878906 -2.3125 5.945312 -2.679688 6.59375 -3.421875 C 7.238281 -4.171875 7.625 -5.125 7.75 -6.28125 C 7.882812 -7.445312 7.953125 -9.265625 7.953125 -11.734375 L 7.953125 -29.3125 C 7.953125 -30.8125 8.050781 -32.484375 8.25 -34.328125 L 2.78125 -34.03125 L 2.78125 -37.265625 C 5.8125 -37.265625 7.984375 -37.441406 9.296875 -37.796875 C 10.609375 -38.160156 11.625 -38.675781 12.34375 -39.34375 L 14.578125 -39.34375 L 14.578125 -8.171875 C 14.578125 -5.859375 14.476562 -4.113281 14.28125 -2.9375 L 19.140625 -3.15625 L 19.140625 0 L 3.390625 0 Z M 3.390625 -2.3125 "/></g></g></g><g fill="#000000" fill-opacity="1"><g transform="translate(536.839801, 77.835061)"><g><path d="M 3.390625 -2.3125 C 4.878906 -2.3125 5.945312 -2.679688 6.59375 -3.421875 C 7.238281 -4.171875 7.625 -5.125 7.75 -6.28125 C 7.882812 -7.445312 7.953125 -9.265625 7.953125 -11.734375 L 7.953125 -29.3125 C 7.953125 -31.476562 8.050781 -33.148438 8.25 -34.328125 L 2.78125 -34.03125 L 2.78125 -37.265625 C 5.8125 -37.265625 7.890625 -37.429688 9.015625 -37.765625 C 10.148438 -38.097656 11.101562 -38.625 11.875 -39.34375 L 14.125 -39.34375 C 14.226562 -38.570312 14.328125 -37.210938 14.421875 -35.265625 C 16.015625 -36.648438 17.816406 -37.753906 19.828125 -38.578125 C 21.835938 -39.398438 23.816406 -39.8125 25.765625 -39.8125 C 28.285156 -39.8125 30.429688 -39.359375 32.203125 -38.453125 C 33.984375 -37.554688 35.363281 -36.285156 36.34375 -34.640625 C 38.195312 -36.128906 40.265625 -37.363281 42.546875 -38.34375 C 44.835938 -39.320312 47.039062 -39.8125 49.15625 -39.8125 C 53.675781 -39.8125 56.976562 -38.4375 59.0625 -35.6875 C 61.144531 -32.9375 62.132812 -28.550781 62.03125 -22.53125 L 61.953125 -8.171875 C 61.953125 -5.859375 61.847656 -4.113281 61.640625 -2.9375 L 66.515625 -3.15625 L 66.515625 0 L 50.765625 0 L 50.765625 -2.3125 C 52.253906 -2.3125 53.320312 -2.679688 53.96875 -3.421875 C 54.613281 -4.171875 55 -5.125 55.125 -6.28125 C 55.257812 -7.445312 55.328125 -9.265625 55.328125 -11.734375 L 55.328125 -22.53125 C 55.328125 -26.957031 54.628906 -30.257812 53.234375 -32.4375 C 51.847656 -34.625 49.660156 -35.71875 46.671875 -35.71875 C 45.078125 -35.71875 43.46875 -35.367188 41.84375 -34.671875 C 40.226562 -33.984375 38.804688 -33.070312 37.578125 -31.9375 C 38.085938 -30.34375 38.34375 -28.46875 38.34375 -26.3125 L 38.1875 -8.171875 C 38.1875 -5.859375 38.085938 -4.113281 37.890625 -2.9375 L 42.75 -3.15625 L 42.75 0 L 27 0 L 27 -2.3125 C 28.5 -2.3125 29.566406 -2.679688 30.203125 -3.421875 C 30.847656 -4.171875 31.222656 -5.097656 31.328125 -6.203125 C 31.429688 -7.316406 31.507812 -9.160156 31.5625 -11.734375 L 31.640625 -22.53125 C 31.691406 -27.007812 31.046875 -30.351562 29.703125 -32.5625 C 28.367188 -34.769531 26.234375 -35.875 23.296875 -35.875 C 21.703125 -35.875 20.117188 -35.539062 18.546875 -34.875 C 16.984375 -34.207031 15.632812 -33.304688 14.5 -32.171875 L 14.578125 -28 L 14.578125 -8.171875 C 14.578125 -5.859375 14.476562 -4.113281 14.28125 -2.9375 L 19.140625 -3.15625 L 19.140625 0 L 3.390625 0 Z M 3.390625 -2.3125 "/></g></g></g><g fill="#000000" fill-opacity="1"><g transform="translate(605.82406, 77.835061)"><g><path d="M 22.21875 1.234375 C 18.71875 1.234375 15.515625 0.433594 12.609375 -1.15625 C 9.703125 -2.75 7.398438 -5.035156 5.703125 -8.015625 C 4.003906 -11.003906 3.15625 -14.53125 3.15625 -18.59375 C 3.15625 -22.195312 4.015625 -25.628906 5.734375 -28.890625 C 7.460938 -32.160156 9.859375 -34.796875 12.921875 -36.796875 C 15.984375 -38.804688 19.441406 -39.8125 23.296875 -39.8125 C 26.078125 -39.8125 28.546875 -39.375 30.703125 -38.5 C 32.867188 -37.625 34.554688 -36.46875 35.765625 -35.03125 C 36.972656 -33.59375 37.578125 -32.023438 37.578125 -30.328125 C 37.578125 -29.140625 37.238281 -28.160156 36.5625 -27.390625 C 35.894531 -26.617188 34.972656 -26.234375 33.796875 -26.234375 C 32.660156 -26.234375 31.8125 -26.601562 31.25 -27.34375 C 30.6875 -28.09375 30.40625 -28.878906 30.40625 -29.703125 C 30.40625 -30.992188 30.789062 -32.023438 31.5625 -32.796875 C 30.988281 -34.390625 29.890625 -35.476562 28.265625 -36.0625 C 26.648438 -36.65625 25.046875 -36.953125 23.453125 -36.953125 C 21.085938 -36.953125 18.96875 -36.304688 17.09375 -35.015625 C 15.21875 -33.734375 13.738281 -31.859375 12.65625 -29.390625 C 11.570312 -26.921875 11.03125 -23.96875 11.03125 -20.53125 C 11.03125 -17.082031 11.582031 -14.019531 12.6875 -11.34375 C 13.789062 -8.664062 15.347656 -6.566406 17.359375 -5.046875 C 19.367188 -3.535156 21.679688 -2.78125 24.296875 -2.78125 C 26.617188 -2.78125 28.894531 -3.410156 31.125 -4.671875 C 33.363281 -5.929688 35.128906 -7.507812 36.421875 -9.40625 L 38.421875 -7.875 C 36.515625 -4.882812 34.054688 -2.617188 31.046875 -1.078125 C 28.046875 0.460938 25.101562 1.234375 22.21875 1.234375 Z M 22.21875 1.234375 "/></g></g></g><g fill="#000000" fill-opacity="1"><g transform="translate(646.720715, 77.835061)"><g><path d="M 14.203125 1.234375 C 10.441406 1.234375 7.570312 0.382812 5.59375 -1.3125 C 3.613281 -3.007812 2.625 -5.222656 2.625 -7.953125 C 2.625 -10.929688 3.816406 -13.445312 6.203125 -15.5 C 8.597656 -17.5625 11.609375 -19.09375 15.234375 -20.09375 C 18.859375 -21.101562 22.5 -21.582031 26.15625 -21.53125 L 26.15625 -26.3125 C 26.15625 -29.65625 25.664062 -32.265625 24.6875 -34.140625 C 23.707031 -36.015625 21.625 -36.953125 18.4375 -36.953125 C 16.84375 -36.953125 15.328125 -36.617188 13.890625 -35.953125 C 12.453125 -35.285156 11.394531 -34.285156 10.71875 -32.953125 C 11.394531 -32.222656 11.734375 -31.242188 11.734375 -30.015625 C 11.734375 -29.242188 11.445312 -28.507812 10.875 -27.8125 C 10.3125 -27.113281 9.488281 -26.765625 8.40625 -26.765625 C 7.332031 -26.765625 6.484375 -27.113281 5.859375 -27.8125 C 5.242188 -28.507812 4.9375 -29.421875 4.9375 -30.546875 C 4.9375 -32.242188 5.59375 -33.800781 6.90625 -35.21875 C 8.21875 -36.632812 10.039062 -37.753906 12.375 -38.578125 C 14.71875 -39.398438 17.332031 -39.8125 20.21875 -39.8125 C 24.539062 -39.8125 27.726562 -38.664062 29.78125 -36.375 C 31.84375 -34.09375 32.847656 -30.476562 32.796875 -25.53125 L 32.71875 -8.171875 C 32.71875 -6.523438 32.613281 -4.78125 32.40625 -2.9375 L 37.890625 -3.234375 L 37.890625 0 L 26.84375 0 C 26.695312 -0.769531 26.519531 -2.234375 26.3125 -4.390625 C 22.550781 -0.640625 18.515625 1.234375 14.203125 1.234375 Z M 15.96875 -3.15625 C 17.925781 -3.15625 19.703125 -3.53125 21.296875 -4.28125 C 22.890625 -5.03125 24.507812 -6.175781 26.15625 -7.71875 C 26.101562 -8.488281 26.078125 -9.800781 26.078125 -11.65625 L 26.15625 -18.90625 C 21.9375 -18.75 18.179688 -17.882812 14.890625 -16.3125 C 11.597656 -14.75 9.953125 -12.347656 9.953125 -9.109375 C 9.953125 -7.203125 10.515625 -5.734375 11.640625 -4.703125 C 12.773438 -3.671875 14.21875 -3.15625 15.96875 -3.15625 Z M 15.96875 -3.15625 "/></g></g></g><g fill="#000000" fill-opacity="1"><g transform="translate(686.537116, 77.835061)"><g><path d="M 2.625 -2.3125 C 4.113281 -2.3125 5.179688 -2.679688 5.828125 -3.421875 C 6.472656 -4.171875 6.859375 -5.125 6.984375 -6.28125 C 7.109375 -7.445312 7.171875 -9.265625 7.171875 -11.734375 L 7.171875 -48.21875 C 7.171875 -50.175781 7.25 -51.847656 7.40625 -53.234375 L 1.921875 -52.921875 L 1.921875 -56.171875 C 5.015625 -56.171875 7.21875 -56.347656 8.53125 -56.703125 C 9.84375 -57.066406 10.859375 -57.582031 11.578125 -58.25 L 13.8125 -58.25 L 13.890625 -8.171875 C 13.890625 -6.171875 13.757812 -4.425781 13.5 -2.9375 L 18.359375 -3.15625 L 18.359375 0 L 2.625 0 Z M 2.625 -2.3125 "/></g></g></g><g fill="#000000" fill-opacity="1"><g transform="translate(707.525599, 77.835061)"><g><path d="M 9.40625 1.234375 C 8.175781 1.234375 7.125 0.757812 6.25 -0.1875 C 5.375 -1.144531 4.9375 -2.316406 4.9375 -3.703125 C 4.9375 -5.085938 5.382812 -6.269531 6.28125 -7.25 C 7.1875 -8.226562 8.253906 -8.71875 9.484375 -8.71875 C 10.773438 -8.71875 11.84375 -8.226562 12.6875 -7.25 C 13.539062 -6.269531 13.96875 -5.085938 13.96875 -3.703125 C 13.96875 -2.316406 13.515625 -1.144531 12.609375 -0.1875 C 11.710938 0.757812 10.644531 1.234375 9.40625 1.234375 Z M 9.40625 1.234375 "/></g></g></g><g fill="#000000" fill-opacity="1"><g transform="translate(726.507813, 77.835061)"><g><path d="M 14.203125 1.234375 C 10.441406 1.234375 7.570312 0.382812 5.59375 -1.3125 C 3.613281 -3.007812 2.625 -5.222656 2.625 -7.953125 C 2.625 -10.929688 3.816406 -13.445312 6.203125 -15.5 C 8.597656 -17.5625 11.609375 -19.09375 15.234375 -20.09375 C 18.859375 -21.101562 22.5 -21.582031 26.15625 -21.53125 L 26.15625 -26.3125 C 26.15625 -29.65625 25.664062 -32.265625 24.6875 -34.140625 C 23.707031 -36.015625 21.625 -36.953125 18.4375 -36.953125 C 16.84375 -36.953125 15.328125 -36.617188 13.890625 -35.953125 C 12.453125 -35.285156 11.394531 -34.285156 10.71875 -32.953125 C 11.394531 -32.222656 11.734375 -31.242188 11.734375 -30.015625 C 11.734375 -29.242188 11.445312 -28.507812 10.875 -27.8125 C 10.3125 -27.113281 9.488281 -26.765625 8.40625 -26.765625 C 7.332031 -26.765625 6.484375 -27.113281 5.859375 -27.8125 C 5.242188 -28.507812 4.9375 -29.421875 4.9375 -30.546875 C 4.9375 -32.242188 5.59375 -33.800781 6.90625 -35.21875 C 8.21875 -36.632812 10.039062 -37.753906 12.375 -38.578125 C 14.71875 -39.398438 17.332031 -39.8125 20.21875 -39.8125 C 24.539062 -39.8125 27.726562 -38.664062 29.78125 -36.375 C 31.84375 -34.09375 32.847656 -30.476562 32.796875 -25.53125 L 32.71875 -8.171875 C 32.71875 -6.523438 32.613281 -4.78125 32.40625 -2.9375 L 37.890625 -3.234375 L 37.890625 0 L 26.84375 0 C 26.695312 -0.769531 26.519531 -2.234375 26.3125 -4.390625 C 22.550781 -0.640625 18.515625 1.234375 14.203125 1.234375 Z M 15.96875 -3.15625 C 17.925781 -3.15625 19.703125 -3.53125 21.296875 -4.28125 C 22.890625 -5.03125 24.507812 -6.175781 26.15625 -7.71875 C 26.101562 -8.488281 26.078125 -9.800781 26.078125 -11.65625 L 26.15625 -18.90625 C 21.9375 -18.75 18.179688 -17.882812 14.890625 -16.3125 C 11.597656 -14.75 9.953125 -12.347656 9.953125 -9.109375 C 9.953125 -7.203125 10.515625 -5.734375 11.640625 -4.703125 C 12.773438 -3.671875 14.21875 -3.15625 15.96875 -3.15625 Z M 15.96875 -3.15625 "/></g></g></g><g fill="#000000" fill-opacity="1"><g transform="translate(766.324269, 77.835061)"><g><path d="M 22.21875 1.234375 C 18.71875 1.234375 15.515625 0.433594 12.609375 -1.15625 C 9.703125 -2.75 7.398438 -5.035156 5.703125 -8.015625 C 4.003906 -11.003906 3.15625 -14.53125 3.15625 -18.59375 C 3.15625 -22.195312 4.015625 -25.628906 5.734375 -28.890625 C 7.460938 -32.160156 9.859375 -34.796875 12.921875 -36.796875 C 15.984375 -38.804688 19.441406 -39.8125 23.296875 -39.8125 C 26.078125 -39.8125 28.546875 -39.375 30.703125 -38.5 C 32.867188 -37.625 34.554688 -36.46875 35.765625 -35.03125 C 36.972656 -33.59375 37.578125 -32.023438 37.578125 -30.328125 C 37.578125 -29.140625 37.238281 -28.160156 36.5625 -27.390625 C 35.894531 -26.617188 34.972656 -26.234375 33.796875 -26.234375 C 32.660156 -26.234375 31.8125 -26.601562 31.25 -27.34375 C 30.6875 -28.09375 30.40625 -28.878906 30.40625 -29.703125 C 30.40625 -30.992188 30.789062 -32.023438 31.5625 -32.796875 C 30.988281 -34.390625 29.890625 -35.476562 28.265625 -36.0625 C 26.648438 -36.65625 25.046875 -36.953125 23.453125 -36.953125 C 21.085938 -36.953125 18.96875 -36.304688 17.09375 -35.015625 C 15.21875 -33.734375 13.738281 -31.859375 12.65625 -29.390625 C 11.570312 -26.921875 11.03125 -23.96875 11.03125 -20.53125 C 11.03125 -17.082031 11.582031 -14.019531 12.6875 -11.34375 C 13.789062 -8.664062 15.347656 -6.566406 17.359375 -5.046875 C 19.367188 -3.535156 21.679688 -2.78125 24.296875 -2.78125 C 26.617188 -2.78125 28.894531 -3.410156 31.125 -4.671875 C 33.363281 -5.929688 35.128906 -7.507812 36.421875 -9.40625 L 38.421875 -7.875 C 36.515625 -4.882812 34.054688 -2.617188 31.046875 -1.078125 C 28.046875 0.460938 25.101562 1.234375 22.21875 1.234375 Z M 22.21875 1.234375 "/></g></g></g><g fill="#000000" fill-opacity="1"><g transform="translate(807.375222, 77.835061)"><g><path d="M 9.40625 1.234375 C 8.175781 1.234375 7.125 0.757812 6.25 -0.1875 C 5.375 -1.144531 4.9375 -2.316406 4.9375 -3.703125 C 4.9375 -5.085938 5.382812 -6.269531 6.28125 -7.25 C 7.1875 -8.226562 8.253906 -8.71875 9.484375 -8.71875 C 10.773438 -8.71875 11.84375 -8.226562 12.6875 -7.25 C 13.539062 -6.269531 13.96875 -5.085938 13.96875 -3.703125 C 13.96875 -2.316406 13.515625 -1.144531 12.609375 -0.1875 C 11.710938 0.757812 10.644531 1.234375 9.40625 1.234375 Z M 9.40625 1.234375 "/></g></g></g><g fill="#000000" fill-opacity="1"><g transform="translate(826.357493, 77.835061)"><g><path d="M 11.03125 -46.984375 C 9.945312 -46.984375 8.992188 -47.429688 8.171875 -48.328125 C 7.347656 -49.234375 6.9375 -50.304688 6.9375 -51.546875 C 6.9375 -52.773438 7.359375 -53.851562 8.203125 -54.78125 C 9.054688 -55.707031 10.023438 -56.171875 11.109375 -56.171875 C 12.296875 -56.171875 13.285156 -55.71875 14.078125 -54.8125 C 14.878906 -53.914062 15.28125 -52.828125 15.28125 -51.546875 C 15.28125 -50.304688 14.851562 -49.234375 14 -48.328125 C 13.15625 -47.429688 12.164062 -46.984375 11.03125 -46.984375 Z M 3.390625 -2.3125 C 4.878906 -2.3125 5.945312 -2.679688 6.59375 -3.421875 C 7.238281 -4.171875 7.625 -5.125 7.75 -6.28125 C 7.882812 -7.445312 7.953125 -9.265625 7.953125 -11.734375 L 7.953125 -29.3125 C 7.953125 -30.8125 8.050781 -32.484375 8.25 -34.328125 L 2.78125 -34.03125 L 2.78125 -37.265625 C 5.8125 -37.265625 7.984375 -37.441406 9.296875 -37.796875 C 10.609375 -38.160156 11.625 -38.675781 12.34375 -39.34375 L 14.578125 -39.34375 L 14.578125 -8.171875 C 14.578125 -5.859375 14.476562 -4.113281 14.28125 -2.9375 L 19.140625 -3.15625 L 19.140625 0 L 3.390625 0 Z M 3.390625 -2.3125 "/></g></g></g><g fill="#000000" fill-opacity="1"><g transform="translate(848.04043, 77.835061)"><g><path d="M 3.390625 -2.3125 C 4.878906 -2.3125 5.945312 -2.679688 6.59375 -3.421875 C 7.238281 -4.171875 7.613281 -5.097656 7.71875 -6.203125 C 7.820312 -7.316406 7.898438 -9.160156 7.953125 -11.734375 L 8.03125 -29.3125 C 8.03125 -31.476562 8.128906 -33.148438 8.328125 -34.328125 L 2.859375 -34.03125 L 2.859375 -37.265625 C 5.890625 -37.265625 7.96875 -37.429688 9.09375 -37.765625 C 10.226562 -38.097656 11.179688 -38.625 11.953125 -39.34375 L 14.203125 -39.34375 C 14.296875 -38.375 14.394531 -36.804688 14.5 -34.640625 C 16.25 -36.179688 18.242188 -37.425781 20.484375 -38.375 C 22.722656 -39.332031 24.921875 -39.8125 27.078125 -39.8125 C 31.554688 -39.8125 34.820312 -38.410156 36.875 -35.609375 C 38.9375 -32.804688 39.96875 -28.445312 39.96875 -22.53125 L 39.96875 -8.171875 C 39.96875 -5.859375 39.863281 -4.113281 39.65625 -2.9375 L 44.515625 -3.15625 L 44.515625 0 L 28.78125 0 L 28.78125 -2.3125 C 30.269531 -2.3125 31.335938 -2.679688 31.984375 -3.421875 C 32.628906 -4.171875 33.015625 -5.125 33.140625 -6.28125 C 33.265625 -7.445312 33.328125 -9.265625 33.328125 -11.734375 L 33.328125 -22.53125 C 33.273438 -26.957031 32.554688 -30.285156 31.171875 -32.515625 C 29.785156 -34.753906 27.597656 -35.875 24.609375 -35.875 C 22.753906 -35.875 20.914062 -35.410156 19.09375 -34.484375 C 17.269531 -33.554688 15.765625 -32.347656 14.578125 -30.859375 C 14.628906 -30.296875 14.65625 -29.296875 14.65625 -27.859375 L 14.578125 -8.171875 C 14.578125 -5.859375 14.476562 -4.113281 14.28125 -2.9375 L 19.140625 -3.15625 L 19.140625 0 L 3.390625 0 Z M 3.390625 -2.3125 "/></g></g></g><g fill="#000000" fill-opacity="1"><g transform="translate(893.412632, 77.835061)"><g><path d="M 1.625 18.125 L 46.671875 -58.640625 L 51.6875 -55.46875 L 6.09375 20.90625 Z M 1.625 18.125 "/></g></g></g></g></g></svg>